<svg width="1114" height="1566" viewBox="0 0 1114 1566" fill="none" xmlns="http://www.w3.org/2000/svg">
    <path d="M510.529 1002.46c139.273 112.01 343.72 89.84 455.736-49.436 73.925-91.919 89.385-212.225 51.325-315.614l17.66-7.845c40.87 109.807 24.66 237.816-53.951 335.551-118.685 147.564-335.302 171.064-482.868 52.384-38.41-30.893-68.386-68.431-89.666-109.65l17.663-7.845c20.06 38.495 48.167 73.553 84.101 102.455z" fill="#86B91E"/>
    <path d="M1018.98 627.423c-3.34 4.157-2.69 10.233 1.47 13.576a9.655 9.655 0 1 0 12.1-15.049c-4.15-3.343-10.23-2.684-13.57 1.473zM410.117 898.013a9.654 9.654 0 0 0 1.473 13.576 9.654 9.654 0 0 0 13.576-1.473 9.653 9.653 0 0 0-1.473-13.575 9.654 9.654 0 0 0-13.576 1.472z" fill="#86B91E"/>
    <path d="M461.458 1063.47c172.918 139.08 426.742 111.54 565.822-61.37 139.07-172.923 111.54-426.747-61.379-565.823a407.026 407.026 0 0 0-22.331-16.72c-1.03-.721.526-1.855-.509-2.556l10.751-13.811a426.252 426.252 0 0 1 24.181 18.053c181.207 145.745 210.067 411.734 64.317 592.947-145.745 181.21-411.739 210.07-592.95 64.32a421.32 421.32 0 0 1-66.417-66.9l12.339-11.965c.69.875 2.397-.518 3.087.355a402.361 402.361 0 0 0 63.089 63.47z" fill="#1A171B"/>
    <path d="M941.28 405.382a9.652 9.652 0 0 0 1.472 13.575 9.653 9.653 0 0 0 13.576-1.472 9.654 9.654 0 0 0-1.473-13.576 9.653 9.653 0 0 0-13.575 1.473zM383.187 999.825c-3.343 4.155-2.684 10.235 1.473 13.575s10.232 2.69 13.576-1.47a9.655 9.655 0 0 0-1.473-13.577 9.653 9.653 0 0 0-13.576 1.472z" fill="#1A171B"/>
    <path d="M1161.32 1109.9c198.52-246.824 159.22-609.15-87.61-807.671-137.919-110.926-311.883-147.573-473.194-115.282-1.979.399-2.521-1.551-4.486-1.14l.458-18.022c17.488-3.49 35.213-6.265 53.16-8.205 157.675-17.11 312.565 28.216 436.152 127.616 123.59 99.4 201.07 240.968 218.17 398.645 17.11 157.676-28.22 312.566-127.62 436.159-99.4 123.58-240.965 201.07-398.643 218.16-98.916 10.74-196.746-3.11-286.427-39.46l3.445-17.05c2.008.84 2.453-1.64 4.464-.84 228.533 91.83 499.972 28.71 662.131-172.91z" fill="#1A171B"/>
    <path d="M590.989 171.246c-3.384 4.208-2.717 10.362 1.491 13.746 4.207 3.384 10.362 2.716 13.746-1.491 3.384-4.208 2.716-10.362-1.491-13.746-4.208-3.384-10.362-2.716-13.746 1.491zM487.474 1285.58c-3.378 4.2-2.711 10.35 1.489 13.73 4.208 3.39 10.355 2.71 13.733-1.49 3.384-4.21 2.718-10.35-1.49-13.73-4.2-3.38-10.348-2.72-13.732 1.49z" fill="#1A171B"/>
    <path d="M1093.04 1054.99c168.25-209.185 134.94-516.24-74.24-684.485-70.827-56.963-152.866-90.804-236.943-102.552-1.873-.266-2.099-2.284-3.975-2.517l5.629-16.726c87.776 12.087 173.46 47.298 247.379 106.754 217.48 174.914 252.1 494.141 77.19 711.616-167.885 208.74-468.701 249-684.903 97.23l8.271-14.24c1.52 1.09 2.05-2.06 3.587-.99 207.896 145.32 496.731 106.43 658.005-94.09z" fill="#86B91E"/>
    <path d="M775.672 252.352c-3.349 4.164-2.695 10.26 1.476 13.615 4.164 3.349 10.266 2.687 13.615-1.477s2.688-10.266-1.476-13.615c-4.172-3.355-10.266-2.687-13.615 1.477zM421.686 1150.73c-3.343 4.16-2.684 10.24 1.472 13.58 4.157 3.34 10.233 2.68 13.576-1.47 3.343-4.16 2.684-10.24-1.472-13.58-4.157-3.34-10.233-2.68-13.576 1.47z" fill="#86B91E"/>
</svg>
