<svg width="447" height="457" viewBox="0 0 447 457" fill="none" xmlns="http://www.w3.org/2000/svg">
<path d="M198.653 392.139C258.989 424.229 334.185 401.249 366.276 340.913C387.455 301.092 384.64 254.8 362.935 218.697L369.006 214.485C392.225 252.797 395.308 302.037 372.789 344.377C338.788 408.305 259.115 432.655 195.188 398.655C178.548 389.804 164.599 377.854 153.653 363.898L159.725 359.686C170.017 372.706 183.086 383.859 198.653 392.139Z" fill="white"/>
<path d="M362.74 214.847C361.783 216.648 362.466 218.882 364.266 219.84C366.067 220.798 368.302 220.115 369.26 218.314C370.217 216.513 369.535 214.279 367.734 213.321C365.933 212.363 363.698 213.046 362.74 214.847Z" fill="white"/>
<path d="M153.455 360.107C152.498 361.908 153.181 364.143 154.981 365.1C156.782 366.058 159.017 365.375 159.975 363.574C160.932 361.774 160.249 359.539 158.449 358.581C156.648 357.623 154.413 358.306 153.455 360.107Z" fill="white"/>
<path d="M184.595 418.57C259.506 458.412 352.864 429.882 392.707 354.971C432.549 280.06 404.019 186.702 329.108 146.859C325.946 145.178 322.745 143.62 319.523 142.18C319.084 141.983 319.587 141.446 319.149 141.257L322.197 135.299C325.686 136.849 329.149 138.526 332.572 140.347C411.075 182.1 440.973 279.932 399.22 358.435C357.467 436.938 259.633 466.839 181.13 425.086C170.262 419.306 160.334 412.448 151.39 404.717L155.167 399.34C155.489 399.62 156.03 398.974 156.352 399.254C164.852 406.58 174.28 413.084 184.595 418.57Z" fill="white"/>
<path d="M317.646 137.021C316.689 138.821 317.372 141.056 319.172 142.014C320.973 142.972 323.208 142.289 324.166 140.488C325.123 138.687 324.44 136.453 322.64 135.495C320.839 134.537 318.604 135.22 317.646 137.021Z" fill="white"/>
<path d="M150.637 400.276C149.679 402.076 150.362 404.311 152.163 405.269C153.964 406.227 156.199 405.544 157.156 403.743C158.114 401.942 157.431 399.707 155.63 398.75C153.83 397.792 151.595 398.475 150.637 400.276Z" fill="white"/>
<path d="M450.776 385.856C507.648 278.926 466.922 145.66 359.993 88.7884C300.244 57.0102 232.28 55.7129 174.01 79.4004C173.295 79.6924 172.951 78.9987 172.243 79.294L171.123 72.4924C177.442 69.9284 183.9 67.6159 190.501 65.6011C248.495 47.8757 309.916 53.7995 363.457 82.2755C416.997 110.752 456.243 158.369 473.964 216.364C491.689 274.358 485.765 335.78 457.289 389.32C428.813 442.86 381.195 482.106 323.2 499.827C286.819 510.948 249.083 512.756 212.796 505.53L212.868 498.879C213.682 499.051 213.672 498.087 214.485 498.246C306.898 516.359 404.321 473.2 450.776 385.856Z" fill="white"/>
<path d="M169.306 74.1859C168.337 76.0087 169.029 78.2722 170.851 79.2417C172.674 80.2111 174.938 79.5194 175.907 77.6966C176.877 75.8739 176.185 73.6104 174.362 72.6409C172.539 71.6715 170.276 72.3632 169.306 74.1859Z" fill="white"/>
<path d="M421.199 370.125C469.397 279.502 434.884 166.565 344.261 118.367C313.579 102.048 280.342 95.2169 247.922 96.8299C247.2 96.8642 246.971 96.1224 246.249 96.1694L247.165 89.4842C280.998 87.7336 315.702 94.8177 347.727 111.851C441.942 161.96 477.821 279.374 427.711 373.589C379.616 464.017 269.521 500.694 177.444 459.187L179.53 453.245C180.179 453.546 180.152 452.325 180.806 452.616C269.302 492.298 374.995 456.995 421.199 370.125Z" fill="white"/>
<path d="M244.481 91.4136C243.522 93.2175 244.204 95.4602 246.011 96.4213C247.815 97.3807 250.06 96.6949 251.019 94.8909C251.979 93.087 251.293 90.8427 249.489 89.8833C247.682 88.9222 245.441 89.6097 244.481 91.4136Z" fill="white"/>
<path d="M175.911 454.194C174.953 455.995 175.636 458.23 177.437 459.187C179.238 460.145 181.473 459.462 182.43 457.661C183.388 455.861 182.705 453.626 180.904 452.668C179.104 451.71 176.869 452.393 175.911 454.194Z" fill="white"/>
</svg>
