<svg width="231" height="57" viewBox="0 0 231 57" fill="none" xmlns="http://www.w3.org/2000/svg">
    <g clip-path="url(#0r7o58zp1a)">
        <path d="M230.722 0H0v56.813h230.722V0z" fill="#ED1C24"/>
        <path fill-rule="evenodd" clip-rule="evenodd" d="M199.074 25.845v3.837h6.069v-3.837c0-1.642-1.367-3.013-3.006-3.013-1.696 0-3.063 1.371-3.063 3.013zm16.134-5.423c-8.259-4.108-16.901-4.381-25.381-.766-6.999 2.96-10.28 11.068-7.272 18.08 1.53 3.617 4.102 6.137 7.765 7.508 8.371 3.176 16.629 2.956 24.778-.77 3.556-1.588 6.017-4.218 7.332-7.889h-10.721c-1.203 3.836-5.306 6.028-9.189 4.823-.328-.111-.602-.22-.986-.385-1.531-.712-2.46-2.191-2.46-3.888v-2.741h23.628c.711-5.862-2.187-11.287-7.494-13.972zm-83.743 5.423a3.001 3.001 0 0 0-3.006-3.013c-1.639 0-3.01 1.371-3.01 3.013v3.837h6.016v-3.837zm17.559 8.549c.712-5.862-2.188-11.287-7.494-13.972-8.204-4.108-16.901-4.381-25.379-.766-7.001 2.96-10.228 11.068-7.276 18.08 1.532 3.617 4.158 6.137 7.822 7.508 8.315 3.176 16.629 2.956 24.778-.77 3.501-1.588 5.963-4.218 7.276-7.889h-10.722c-1.146 3.836-5.249 6.028-9.132 4.823-.329-.111-.657-.22-.986-.385-1.531-.712-2.462-2.191-2.462-3.888v-2.741h23.575zm6.127 5.696V15.493h-4.265V9.465h24.502V40.09h4.323v6.029h-28.825V40.09h4.265zM89.458 17.847l8.806-4.602-2.79-5.314-8.805 4.549 2.789 5.367zm12.307 22.243V18.56H78.081v6.026h4.321V40.09h-4.321v6.029h28.006V40.09h-4.322zM42.308 23.764 52.647 9.465h21.55v6.028h-4.32V40.09h4.32v6.029H46.192V40.09h4.32V24.148l-15.916 21.97-15.971-21.97V40.09h4.32v6.029H7.465V40.09h4.267V15.493H7.466V9.465h24.45l10.392 14.3z" fill="#fff"/>
    </g>
    <defs>
        <clipPath id="0r7o58zp1a">
            <path fill="#fff" d="M0 0h231v57H0z"/>
        </clipPath>
    </defs>
</svg>
