<svg width="322" height="74" viewBox="0 0 322 74" fill="none" xmlns="http://www.w3.org/2000/svg">
    <g clip-path="url(#7eotegt7la)" fill="#010B44">
        <path d="M11.009 38.752c16.714 0 32.905 13.78 32.905 30.524-2.092.427-4.73.744-6.966.744-17.59-.023-32.275-14.161-32.94-31.268h7zM36.948 3.975c2.361 0 4.874.315 6.97.733 0 16.76-16.198 30.553-32.915 30.553l-6.99-.01C5.158 18.07 19.364 3.975 36.947 3.975zm10.43 1.677c13.067 4.285 22.508 16.681 22.544 31.326.036 14.407-9.216 26.774-22.543 31.342V5.652zM0 73.982h73.92V0H0v73.983zM98.665 43.493V38.83h15.381v-5.946H98.663V24.23h16.364v-5.93h-22.66v24.925c0 6.3 2.681 10.61 8.976 11.495.126.032.249.055.364.057h.116c.644.071 1.303.12 1.992.12h11.649v-5.923h-11.596c-2.002 0-5.203-.989-5.203-5.48zM126.237 18.29h-6.299v36.616h6.299V18.29zM136.811 38.778c.263-3.219 3.532-5.804 7.486-5.804 3.691 0 6.697 2.638 6.697 5.804h-14.183zm7.486-11.187c-7.961 0-13.919 5.488-13.919 14.036v.212c0 8.337 5.747 13.72 14.078 13.72 4.007 0 7.75-1.109 11.178-4.75l-3.796-3.694c-2.004 2.005-3.955 3.06-7.172 3.06-4.692 0-7.803-2.743-8.013-6.965h20.668c.106-1.055.106-2.215.106-2.215 0-7.441-5.221-13.404-13.13-13.404zM175.126 33.237c2.847 0 4.956 1.055 6.748 2.902l3.903-4.063c-3.058-3.271-6.697-4.59-10.651-4.59-8.015 0-14.447 5.962-14.447 14.088 0 8.127 6.432 14.09 14.447 14.09 3.954 0 7.593-1.32 10.651-4.592l-3.903-4.063c-1.792 1.847-3.901 2.902-6.748 2.902-4.64 0-8.173-3.535-8.173-8.337 0-4.801 3.533-8.337 8.173-8.337zM195.996 43.502h-.007v-9.348h5.729v-5.727h-5.721V18.29h-6.299v25.584l.017-.001c.181 5.948 2.882 10 8.959 10.855.126.032.249.055.364.057h.116c.644.072 1.303.12 1.992.12h.667l.023-5.923h-.637c-2.002 0-5.203-.988-5.203-5.48zM213.266 32.366V28.43h-6.248v26.476h6.248V40.983c0-4.36 2.782-7.092 7.137-7.092.998 0 1.891.105 2.626.264V28.06a13.602 13.602 0 0 0-1.889-.156c-3.782 0-6.616 1.734-7.874 4.462zM238.429 49.968c-4.672 0-8.187-3.626-8.187-8.301 0-4.677 3.515-8.3 8.187-8.3 4.621 0 8.188 3.623 8.188 8.3 0 4.675-3.567 8.3-8.188 8.3zm0-22.327c-8.032 0-14.437 6.092-14.437 14.026 0 7.93 6.405 14.026 14.437 14.026 7.977 0 14.435-6.096 14.435-14.026 0-7.934-6.458-14.026-14.435-14.026zM263.04 18.29h-6.302v36.615h6.302V18.29zM285.757 43.82c0 4.202-2.466 5.99-5.775 5.99-3.307 0-5.773-1.788-5.773-5.936V28.43h-6.352v15.97c0 7.566 5.511 11.19 12.074 11.19 6.614 0 12.176-3.676 12.176-11.348V28.429h-6.35v15.39zM315.941 46.438l-3.973-5.559 4.919-6.706 4.213-5.744h-6.875l-5.724 7.932-5.773-7.932h-6.824l3.913 5.357 5.221 7.145-5.472 7.626-4.554 6.348h6.771l6.718-9.352 6.72 9.352h6.772l-6.052-8.467z"/>
    </g>
    <defs>
        <clipPath id="7eotegt7la">
            <path fill="#fff" d="M0 0h322v74H0z"/>
        </clipPath>
    </defs>
</svg>
