<svg width="274" height="40" viewBox="0 0 274 40" fill="none" xmlns="http://www.w3.org/2000/svg">
    <g clip-path="url(#si6zggrb2a)" fill-rule="evenodd" clip-rule="evenodd">
        <path d="M26.253 1.097c4.852 1.759 10.418 5.94 11.75 11.262H27.299c-2.95-2.946-7.708-3.896-11.56-2.232-3.807 1.473-6.471 5.416-6.52 9.504-.141 4.133 2.427 7.887 6.091 9.693 3.425 1.805 8.374 1.188 11.323-1.282 1.284-1.14 2.141-2.52 2.854-3.898l-11.894-.095v-7.792h21.885c.524 5.891-.429 11.261-3.854 15.586-4.757 6.035-11.703 8.79-19.363 7.509-7.088-.999-13.986-7.46-15.652-14.4C-.675 19.773.086 13.88 2.75 9.604 6.27 3.948 12.027.433 18.403.005c2.806-.048 5.423.237 7.85 1.092zM92.81.479c5.757 1.332 12.133 5.893 13.845 11.928H95.95c-2.854-2.899-7.28-3.896-11.133-2.47-3.615 1.187-6.66 4.941-6.898 8.744-.428 3.943 1.285 7.365 4.473 9.741 3.188 2.47 8.562 2.519 11.892.285 1.76-1.045 2.95-2.852 3.807-4.563l-11.847-.095v-7.792h20.126C107.511 9.08 113.981 2 121.165.527c4.663-1.045 9.895-.38 13.893 1.71 3.852 2.045 8.087 5.846 9.086 10.17h-10.705c-2.854-2.899-7.279-3.896-11.133-2.47-3.615 1.187-6.66 4.941-6.897 8.744-.428 3.943 1.284 7.365 4.472 9.741 3.044 2.328 8.135 2.566 11.37.617 1.951-.997 3.473-3.041 4.329-4.895l-11.847-.095v-7.792h21.838c.476 5.416-.238 10.596-3.234 14.73-4.854 6.938-12.894 10.075-21.172 8.127-6.138-1.236-12.085-6.89-13.987-12.83-1.903 6.13-8.087 11.69-14.368 12.925-8.516 1.805-16.604-1.711-21.266-8.981-3.948-5.75-3.902-15.017-.048-20.815C76.111 2.096 84.295-1.327 92.81.48zM62.98 38.972c-.856-1.95-1.76-3.945-2.712-5.799h-12.56l-2.71 5.846H33.294L53.99.431l20.647 38.54H62.98zM243.72 39.019h-11.609l-2.665-5.846h-12.655l-2.664 5.799-9.086.047-22.693-17.06-.097-.096-.047 17.156h-9.896V1.478l23.598 17.676.048-18.008h10.133l.047 30.839v.048l16.938-31.6 20.648 38.49v.096zM170.596 10.268h-13.678v5.704l12.488.095v7.935h-12.488v5.607l13.678.048v9.362h-23.644V1.146h23.644v9.122zM248.43 22.672c.189 2.946 2.045 5.987 4.947 6.985 2.474 1.14 5.566.476 7.659-1.045 4.045-3.09 2.808-8.602 3.045-13.259V1.146h9.564l.19 20.052c-.144 6.654-2.712 13.116-8.85 16.442a17.005 17.005 0 0 1-7.041 2.234c-1.808.095-3.759.095-5.423-.332-5.567-1.094-11.514-5.798-12.799-11.548-.57-2.661-.856-5.417-.903-8.268l-.048-18.58h9.61l.049 21.526z" fill="#231F20"/>
        <path d="m50.564 26.948 3.662-7.602 3.332 7.602h-6.994zM219.645 26.948l3.712-7.602 3.33 7.555-7.042.047z" fill="#fff"/>
    </g>
    <defs>
        <clipPath id="si6zggrb2a">
            <path fill="#fff" d="M0 0h274v40H0z"/>
        </clipPath>
    </defs>
</svg>
