<svg width="262" height="60" viewBox="0 0 262 60" fill="none" xmlns="http://www.w3.org/2000/svg">
    <g clip-path="url(#ccfe9ifana)" fill-rule="evenodd" clip-rule="evenodd">
        <path d="M251.795 33.336h-12.123v15.212h-9.994v-38.44h9.994v14.394h12.123V10.107h10.158v38.441h-10.158V33.337zM226.238 17.468l-7.864 5.071c-1.475-1.472-3.277-4.253-7.7-4.253-2.785 0-7.864 2.454-7.864 10.142 0 8.016 3.44 11.614 8.683 11.45 4.096-.163 4.915-.98 7.372-3.925l7.209 5.398c-2.622 3.435-5.898 8.016-14.909 7.852-9.666-.164-18.185-7.852-18.185-20.775.164-10.633 7.536-19.302 17.694-19.302 6.389.163 11.632 2.944 15.564 8.342zM159.886 42.005l5.734-5.889c2.294 2.29 6.717 4.417 9.83 4.417 3.277 0 5.407-.327 5.407-3.272 0-1.635-.656-2.453-2.294-2.944-3.113-.818-7.045-1.963-10.649-3.435-4.26-2.127-6.881-4.417-6.881-10.47 0-10.141 11.304-11.777 14.745-11.613 3.604 0 9.01 1.472 13.106 5.889-2.13 1.799-2.457 2.453-5.898 6.38-2.293-2.618-4.751-4.09-7.7-4.09-2.457 0-4.915 1.145-4.751 3.598.164 1.8.656 2.781 2.294 3.108 1.802.491 3.604 1.145 9.011 2.454 5.242 1.309 8.355 5.235 8.191 10.47-.164 7.851-5.734 12.104-13.27 12.104-6.717 0-12.124-1.636-16.875-6.707zM122.042 28.428c0-3.926.491-7.361 1.965-9.978 1.311-2.781 2.786-4.908 4.752-6.216 1.966-1.309 3.931-2.29 5.734-2.781 1.802-.49 3.604-.818 5.242-.818s3.441.327 5.407.818a16.758 16.758 0 0 1 5.734 2.78c1.966 1.31 3.604 3.436 4.751 6.217 1.31 2.617 1.966 6.052 1.966 9.978 0 4.253-.656 7.688-1.966 10.306-1.147 2.78-2.785 4.907-4.751 6.216-1.966 1.308-3.932 2.29-5.898 2.78-1.802.491-3.605.819-5.243.819-1.474 0-3.276-.328-5.242-.818-1.803-.491-3.768-1.473-5.734-2.781-1.966-1.309-3.441-3.435-4.752-6.216-1.474-2.618-1.965-6.053-1.965-10.306zm9.338.49c0 1.964.327 3.763.819 5.072.491 1.472 1.147 2.617 2.13 3.271.655.982 1.638 1.473 2.621 1.8.819.327 1.802.49 2.785.49.983 0 1.966-.163 2.949-.49.983-.327 1.802-.818 2.621-1.8.82-.654 1.475-1.799 2.13-3.271.328-1.309.656-3.108.656-5.071 0-2.127-.328-3.762-.656-5.071-.655-1.472-1.31-2.454-2.13-3.435-.819-.655-1.638-1.309-2.621-1.636-.983-.327-1.966-.327-2.949-.327-.983 0-1.966 0-2.785.327-.983.327-1.966.981-2.621 1.636-.983.981-1.639 1.963-2.13 3.435-.492 1.309-.819 2.944-.819 5.07zM87.473 47.076V9.29h18.185c5.734 0 11.96 3.926 11.96 10.142 0 3.926-.819 6.543-4.587 8.506 4.095 1.8 6.389 2.781 6.225 10.142 0 7.198-6.225 9.324-15.891 9.324l-15.892-.327zm9.666-15.213v8.18h7.209c3.112 0 4.915-1.473 4.915-4.09s-2.13-4.09-4.588-4.09h-7.536zm-.328-14.722v7.525h6.718c2.293 0 4.423-1.472 4.423-3.763 0-2.29-1.802-3.762-4.423-3.762h-6.718z" fill="#EE2928"/>
        <path d="M40.169 49.523v-9.415h-21.31v9.038l-3.206-2.26c-2.452-2.26-4.526-4.895-6.035-7.72-1.32-3.013-2.075-6.025-2.075-9.603 0-3.39.755-6.402 2.075-9.415 1.509-2.824 3.583-5.649 6.035-7.72l3.206-2.26v10.168h21.31V9.792l3.017 2.26a24.694 24.694 0 0 1 6.6 7.908c1.32 2.824 2.075 6.025 2.075 9.603 0 3.578-.754 6.967-2.074 9.792a24.693 24.693 0 0 1-6.6 7.908l-3.018 2.26zm3.772-31.635v23.538c.754-1.13 1.697-2.26 2.263-3.578 1.32-2.448 1.886-5.272 1.886-8.285 0-2.825-.566-5.649-1.886-8.097-.566-1.318-1.509-2.448-2.263-3.578zm-25.082 6.214v12.24h20.933v-12.24H18.859zm-3.96 16.57v-22.03c-.566 1.13-1.32 2.07-1.886 3.2-.944 2.26-1.698 5.085-1.698 7.721 0 2.825.755 5.649 1.697 7.909.566 1.13 1.32 2.07 1.886 3.2zM29.796 0c8.297 0 15.652 3.39 20.933 8.662 5.28 5.46 8.675 12.804 8.675 20.901 0 8.285-3.395 15.629-8.675 21.09-5.28 5.272-12.636 8.661-20.933 8.661-8.298 0-15.653-3.39-20.933-8.662C3.394 45.192 0 37.848 0 29.563c0-8.097 3.395-15.44 8.864-20.901C14.144 3.389 21.499 0 29.797 0zM48.09 11.298c-4.715-4.707-11.127-7.532-18.293-7.532-7.167 0-13.579 2.825-18.482 7.532-4.526 4.896-7.543 11.11-7.543 18.265 0 7.155 3.017 13.558 7.543 18.453 4.903 4.708 11.315 7.532 18.482 7.532 7.166 0 13.578-2.824 18.293-7.532 4.714-4.895 7.543-11.298 7.543-18.453 0-7.155-2.829-13.37-7.544-18.265z" fill="#231F20"/>
    </g>
    <defs>
        <clipPath id="ccfe9ifana">
            <path fill="#fff" d="M0 0h262v60H0z"/>
        </clipPath>
    </defs>
</svg>
