<svg width="329" height="39" viewBox="0 0 329 39" fill="none" xmlns="http://www.w3.org/2000/svg">
    <g clip-path="url(#0jrkbhfhya)" fill-rule="evenodd" clip-rule="evenodd">
        <path d="M79.31 17.794c-.538-.269-9.695-.672-10.368-.941-1.077 0-1.75 0-2.02-.538-.27-.27-.27-.673-.27-1.21 0-.538.27-1.48 2.29-1.21l16.293.268V8.918H67.46c-.27 0-3.77-.269-5.925 1.749-1.077.94-1.75 2.42-1.75 4.438 0 2.42.673 4.168 1.75 5.379 1.885 1.48 3.905 1.48 4.848 1.48l10.637.537c.27 0 1.077 0 1.75.538.27.403.27.672.27.941 0 .538 0 .942-.27 1.21-.673.27-.942.27-.942.27H60.998v4.976h18.581c1.482-.27 6.599-1.48 6.33-6.725 0-5.11-4.444-5.917-6.599-5.917zM293.811 30.436c1.751-.27 6.464-1.48 6.464-6.725-.27-5.11-4.713-5.917-6.464-5.917h-.269c-.269-.269-9.426-.672-10.368-.941-.943 0-1.751 0-2.02-.538-.404-.27-.404-.673-.404-1.21 0-.538.673-1.48 2.693-1.21l16.293.268V8.918h-18.043s-3.501-.269-5.925 1.749c-1.212.94-1.751 2.42-1.481 4.438 0 2.42.538 4.168 1.75 5.379 1.481 1.48 3.905 1.48 4.444 1.48.269 0 11.041.537 11.041.537s1.077 0 1.751.538c0 .403.269.672.269.941 0 .538-.269.942-.673 1.21-.27.27-.808.27-.808.27h-16.832v4.976h18.582zM322.492 30.436c1.481-.27 6.194-1.48 6.194-6.725-.269-5.11-4.713-5.917-6.463-5.917h-.269c-.27-.269-9.561-.672-10.369-.941-.942 0-1.75 0-2.019-.538-.404-.27-.404-.673-.404-1.21.404-.538.673-1.48 2.693-1.21l16.293.268V8.918h-18.044s-3.501-.269-5.925 1.749c-1.211.94-1.481 2.42-1.481 4.438 0 2.42.539 4.168 1.751 5.379 1.481 1.48 3.905 1.48 4.443 1.48.27 0 10.907.537 10.907.537s1.212 0 1.885.538c0 .403.27.672.27.941 0 .538-.27.942-.674 1.21-.269.27-.808.27-.808.27h-16.831v4.976h18.851zM87.928 20.08c0 2.421 0 4.438.943 6.859.808 2.017 4.712 3.497 7.002 3.497h17.774V25.46c-2.02 0-16.293-.27-16.293-.27-3.232 0-2.963-3.227-2.963-3.63v-4.438s.27-1.48.943-2.018c.808-1.21 2.693-1.21 2.962-1.21l15.351.27V8.917H96.142s-4.713 0-6.463 2.018c-1.212 1.21-1.751 4.168-1.751 8.069v1.075zM136.672 16.853h-13.196V8.918h-6.329v21.518h6.329V22.5h13.196v7.935h6.598V8.918h-6.598v7.935zM166.296 30.436c6.194 0 6.463-6.725 6.463-6.725V8.918h-6.194v13.045c0 2.286-2.289 2.959-2.289 2.959h-8.349c-2.693-.673-2.693-2.959-2.693-3.362V8.918h-6.463V22.77c.269 6.59 6.463 7.666 7.137 7.666 0 0 6.732.269 12.388 0zM196.188 24.922h-13.33V8.918h-6.194v21.518h19.524v-5.514zM192.957 8.918v5.649h8.617v15.869h6.464v-15.87h8.617V8.919h-23.698zM271.593 25.46h-15.888v-3.497h14.811v-4.438h-14.542v-3.362h15.619V8.918H249.51v21.518h22.083V25.46zM239.681 30.436h6.194V8.918h-6.463v7.935h-13.331V8.918h-6.194v21.518h6.194V22.5h13.6v7.935z" fill="#231F20"/>
        <path d="M1.212 26.94c-2.02-4.439.27-9.818 5.117-11.835 4.712-1.749 10.233.537 12.118 4.976 2.29 5.648 8.887 8.337 14.408 5.917 2.693-.807 4.713-2.959 5.925-5.245-.27 7.128-4.982 13.852-12.388 16.81-9.83 3.9-21.006-.538-25.18-10.355v-.269z" fill="#00AEE2"/>
        <path d="M37.568 11.877c1.885 4.438-.808 10.355-5.252 11.835-4.712 2.017-10.098-.27-12.118-5.11-2.424-5.246-8.618-7.935-14.273-5.918-2.559 1.21-4.713 3.362-5.925 5.648.404-7.396 4.847-14.12 12.119-16.81 10.099-4.169 21.41.538 25.449 10.355z" fill="#19A59C"/>
    </g>
    <defs>
        <clipPath id="0jrkbhfhya">
            <path fill="#fff" d="M0 0h329v39H0z"/>
        </clipPath>
    </defs>
</svg>
