<svg width="252" height="40" viewBox="0 0 252 40" fill="none" xmlns="http://www.w3.org/2000/svg">
    <g clip-path="url(#aiyo9cizqa)" fill="#00A2B3">
        <path fill-rule="evenodd" clip-rule="evenodd" d="M27.012 1.365v7.344c-3.495-1.221-7.322-1.935-10.375-1.935-3.764 0-5.86 1.149-5.86 3.208 0 1.315.917 2.186 3.549 3.369l7.077 3.173c5.661 2.544 8.514 6.255 8.514 11.07 0 7.439-6.44 12.132-16.651 12.132-3.724 0-8.032-.534-12.595-1.565v-7.59c4.524 1.229 8.666 1.885 11.89 1.885 4.22 0 6.482-1.173 6.482-3.364 0-1.318-.882-2.285-2.904-3.186l-7.747-3.45C2.65 19.9 0 16.45 0 11.534 0 4.49 6.208 0 15.948 0c3.411 0 7.61.517 11.064 1.365z"/>
        <path d="M46.876.768H35.43v38.187h11.446V.768z"/>
        <path fill-rule="evenodd" clip-rule="evenodd" d="M84.088.768v6.998h-17.28v8.613h15.096v6.324H66.81v8.933H84.31v7.319H55.687V.768h28.4zM138.161.768v38.187h-11.076V13.821l-10.846 25.432h-7.002L98.463 13.821v25.134h-7.647V.768h13.978l9.881 23.228 9.83-23.228h13.656zM175.401.768v6.998h-17.303v8.613h15.09v6.324h-15.09v8.933h17.499v7.319h-28.649V.768h28.453zM215.718.768v38.187h-12.214l-13.754-24.49v24.49h-7.648V.768h12.537l13.456 24.169V.768h7.623zM248.934 1.365v7.344c-3.471-1.213-7.322-1.935-10.317-1.935-3.825 0-5.92 1.13-5.92 3.197 0 1.347.855 2.153 3.577 3.38l7.048 3.173c5.702 2.57 8.519 6.247 8.519 11.122 0 7.398-6.446 12.08-16.634 12.08-3.729 0-8.055-.535-12.612-1.565v-7.59c4.518 1.226 8.654 1.885 11.855 1.885 4.193 0 6.516-1.173 6.516-3.295 0-1.404-.814-2.31-2.932-3.255l-7.716-3.45c-5.777-2.579-8.396-5.987-8.396-10.92 0-7.04 6.209-11.534 15.927-11.534 3.421 0 7.635.515 11.085 1.363z"/>
    </g>
    <defs>
        <clipPath id="aiyo9cizqa">
            <path fill="#fff" d="M0 0h252v40H0z"/>
        </clipPath>
    </defs>
</svg>
