<svg width="126" height="128" viewBox="0 0 126 128" fill="none" xmlns="http://www.w3.org/2000/svg">
    <g clip-path="url(#dq9hmbz44a)" fill-rule="evenodd" clip-rule="evenodd" fill="#0083C7">
        <path d="M69.059 40.578H57.577L46.44 14.211l9.252-.171 7.883 20.545 7.712-20.545h8.224L69.06 40.578zM46.268 49.481 32.216 62.665H46.44v7.533H19.364v-6.677l14.909-14.04H20.22v-6.849h26.047v6.85zM56.72 60.097c.172 1.883 2.058 2.568 3.257 3.424 2.913.685 5.997.343 8.225-1.37l1.2-1.884V42.632h8.053v20.375c-1.37 4.28-6.682 7.363-11.309 7.876-6.169.343-15.422 0-17.48-8.047V42.632h8.055v17.465zM106.587 49.31c-13.366.343-17.821.514-17.993 3.253-1.2 2.568-1.028 6.335 1.028 8.56 2.228 2.569 5.484.857 8.911 1.37v-6.848h9.082s.171 11.814 0 14.382c-19.192-.171-22.962 1.712-26.903-7.534-1.371-5.82-1.714-12.84 2.741-17.292 3.428-4.623 23.134-3.082 23.134-3.082v7.191z"/>
        <path d="M125.951 0c-3.599 28.25-5.998 57.015-9.939 86.121-3.256 18.834-19.364 35.955-38.214 40.236-22.79 5.307-46.096-2.911-58.606-21.402-10.794-14.04-9.253-32.36-12.508-49.31L0 0h125.951zm-11.31 25.34-5.826 51.707c-.857 14.553-8.569 28.764-21.934 36.297-11.995 7.704-29.304 7.704-42.326 2.226-12.853-5.821-23.306-18.491-25.704-32.36-3.6-25.682-6.17-47.768-9.597-73.964H116.87l-2.228 16.095z"/>
    </g>
    <defs>
        <clipPath id="dq9hmbz44a">
            <path fill="#fff" d="M0 0h126v128H0z"/>
        </clipPath>
    </defs>
</svg>
