<svg width="220" height="160" viewBox="0 0 220 160" fill="none" xmlns="http://www.w3.org/2000/svg">
<path d="M104.678 172.676C145.505 172.676 178.722 139.459 178.722 98.6317C178.722 71.6858 164.25 48.058 142.673 35.1041L144.694 31.1789C167.689 44.8737 183.129 69.9811 183.129 98.6317C183.129 141.89 147.936 177.085 104.678 177.085C93.418 177.085 82.708 174.695 73.0191 170.405L75.0401 166.479C84.1218 170.46 94.144 172.676 104.678 172.676Z" fill="#86B91E"/>
<path d="M141.491 33.1275C141.491 34.3461 142.478 35.3332 143.697 35.3332C144.915 35.3332 145.902 34.3461 145.902 33.1275C145.902 31.909 144.915 30.9219 143.697 30.9219C142.478 30.9219 141.491 31.909 141.491 33.1275Z" fill="#86B91E"/>
<path d="M104.678 190.562C155.368 190.562 196.608 149.322 196.608 98.6318C196.608 47.9414 155.368 6.70204 104.678 6.70205C102.538 6.70205 100.413 6.77847 98.3091 6.92283C98.0225 6.94194 98.1371 6.51736 97.8527 6.54071L97.789 2.5433C100.065 2.38196 102.362 2.29492 104.678 2.29492C157.799 2.29492 201.015 45.5107 201.015 98.6318C201.015 151.753 157.799 194.971 104.678 194.971C97.3241 194.971 90.1635 194.139 83.2769 192.57L83.7609 188.674C84.0093 188.732 84.1133 188.239 84.3617 188.296C90.9002 189.776 97.6977 190.562 104.678 190.562Z" fill="#1A171B"/>
<path d="M95.872 4.72757C95.872 5.94611 96.8592 6.93326 98.0777 6.93326C99.2962 6.93326 100.283 5.94611 100.283 4.72757C100.283 3.50903 99.2962 2.52189 98.0777 2.52189C96.8592 2.52189 95.872 3.50903 95.872 4.72757Z" fill="#1A171B"/>
<path d="M235.902 98.6316C235.902 26.2749 177.034 -32.5929 104.677 -32.5929C64.2466 -32.5929 28.0343 -14.2107 3.94371 14.6309C3.64864 14.9854 3.27288 14.7158 2.98204 15.0703L0.483403 11.7968C3.09668 8.67193 5.85433 5.64044 8.77118 2.72571C34.3881 -22.8934 68.4478 -37 104.677 -37C140.906 -37 174.966 -22.8934 200.583 2.72569C226.202 28.3426 240.309 62.4023 240.309 98.6316C240.309 134.861 226.202 168.921 200.583 194.538C184.513 210.61 165.116 222.15 143.949 228.519L142.121 224.99C142.598 224.852 142.322 224.347 142.796 224.203C196.622 207.831 235.902 157.735 235.902 98.6316Z" fill="#1A171B"/>
<path d="M3.03223e-05 13.2001C3.04302e-05 14.4335 0.999913 15.4334 2.23331 15.4334C3.46671 15.4334 4.4666 14.4335 4.4666 13.2001C4.4666 11.9667 3.46671 10.9669 2.23331 10.9669C0.999913 10.9669 3.02145e-05 11.9667 3.03223e-05 13.2001Z" fill="#1A171B"/>
<path d="M215.887 98.6315C215.887 37.3097 165.999 -12.5783 104.677 -12.5783C83.9153 -12.5783 64.4675 -6.85711 47.8197 3.08864C47.4482 3.30942 47.1192 2.98249 46.7519 3.20964L45.3593 -0.573355C62.7139 -10.9883 83.0067 -16.9876 104.677 -16.9876C168.43 -16.9876 220.294 34.8789 220.294 98.6315C220.294 159.822 172.512 210.054 112.301 213.992L111.734 210.272C112.16 210.249 111.804 209.612 112.23 209.582C170.041 205.687 215.887 157.414 215.887 98.6315Z" fill="#86B91E"/>
<path d="M44.4852 1.19714C44.4852 2.41781 45.4745 3.4092 46.6973 3.4092C47.9179 3.4092 48.9093 2.41781 48.9093 1.19714C48.9093 -0.0235201 47.9179 -1.01491 46.6973 -1.01491C45.4745 -1.01491 44.4852 -0.0235198 44.4852 1.19714Z" fill="#86B91E"/>
</svg>
