<svg width="144" height="144" viewBox="0 0 144 144" fill="none" xmlns="http://www.w3.org/2000/svg">
<circle cx="71.5127" cy="71.5127" r="71.5127" fill="white"/>
<path d="M58.9075 70.2301V71.0238C58.9075 72.2967 58.735 73.4393 58.3899 74.4515C58.0448 75.4637 57.5579 76.3264 56.9291 77.0396C56.3003 77.7451 55.5488 78.2857 54.6746 78.6614C53.8081 79.0372 52.8457 79.225 51.7875 79.225C50.7369 79.225 49.7745 79.0372 48.9003 78.6614C48.0338 78.2857 47.2823 77.7451 46.6458 77.0396C46.0094 76.3264 45.5148 75.4637 45.162 74.4515C44.8169 73.4393 44.6444 72.2967 44.6444 71.0238V70.2301C44.6444 68.9495 44.8169 67.8069 45.162 66.8023C45.5071 65.7901 45.994 64.9274 46.6228 64.2143C47.2593 63.5011 48.0108 62.9567 48.8773 62.5809C49.7515 62.2052 50.7139 62.0173 51.7644 62.0173C52.8227 62.0173 53.7851 62.2052 54.6516 62.5809C55.5258 62.9567 56.2773 63.5011 56.9061 64.2143C57.5425 64.9274 58.0333 65.7901 58.3784 66.8023C58.7311 67.8069 58.9075 68.9495 58.9075 70.2301ZM55.4222 71.0238V70.2071C55.4222 69.3176 55.3417 68.5354 55.1807 67.8606C55.0197 67.1858 54.7819 66.6183 54.4675 66.1582C54.1531 65.6981 53.7697 65.353 53.3173 65.123C52.8649 64.8853 52.3472 64.7664 51.7644 64.7664C51.1817 64.7664 50.664 64.8853 50.2116 65.123C49.7668 65.353 49.3873 65.6981 49.0729 66.1582C48.7661 66.6183 48.5322 67.1858 48.3712 67.8606C48.2102 68.5354 48.1297 69.3176 48.1297 70.2071V71.0238C48.1297 71.9056 48.2102 72.6878 48.3712 73.3703C48.5322 74.0451 48.77 74.6164 49.0844 75.0841C49.3988 75.5442 49.7822 75.8932 50.2346 76.1309C50.687 76.3686 51.2047 76.4874 51.7875 76.4874C52.3702 76.4874 52.8879 76.3686 53.3403 76.1309C53.7927 75.8932 54.1723 75.5442 54.479 75.0841C54.7858 74.6164 55.0197 74.0451 55.1807 73.3703C55.3417 72.6878 55.4222 71.9056 55.4222 71.0238ZM64.6138 62.2473V78.995H61.1745V62.2473H64.6138ZM73.9548 71.6449H69.6529L69.6299 69.2754H73.2417C73.8781 69.2754 74.3996 69.1949 74.806 69.0338C75.2124 68.8651 75.5153 68.6236 75.7147 68.3092C75.9217 67.9871 76.0253 67.596 76.0253 67.1359C76.0253 66.6145 75.9256 66.1927 75.7262 65.8706C75.5345 65.5486 75.2316 65.3147 74.8175 65.169C74.4111 65.0233 73.8858 64.9504 73.2417 64.9504H70.8491V78.995H67.3984V62.2473H73.2417C74.2155 62.2473 75.0859 62.3394 75.8527 62.5234C76.6272 62.7074 77.2829 62.9873 77.8197 63.3631C78.3564 63.7388 78.7667 64.2143 79.0504 64.7894C79.3342 65.3569 79.476 66.0317 79.476 66.8138C79.476 67.504 79.3188 68.1405 79.0044 68.7233C78.6977 69.306 78.2107 69.7815 77.5436 70.1496C76.8841 70.5176 76.0214 70.7209 74.9555 70.7592L73.9548 71.6449ZM73.8053 78.995H68.7097L70.0555 76.3034H73.8053C74.4111 76.3034 74.9057 76.2076 75.2891 76.0158C75.6725 75.8165 75.9562 75.5481 76.1403 75.2107C76.3243 74.8733 76.4164 74.486 76.4164 74.0489C76.4164 73.5581 76.332 73.1325 76.1633 72.7721C76.0023 72.4117 75.7415 72.1357 75.3811 71.944C75.0207 71.7446 74.5453 71.6449 73.9548 71.6449H70.6306L70.6536 69.2754H74.7945L75.5882 70.2071C76.6081 70.1917 77.4286 70.3719 78.0497 70.7477C78.6785 71.1158 79.1348 71.595 79.4185 72.1855C79.7099 72.776 79.8556 73.4086 79.8556 74.0834C79.8556 75.157 79.6217 76.0619 79.1539 76.798C78.6862 77.5265 77.9999 78.0748 77.095 78.4429C76.1978 78.811 75.1012 78.995 73.8053 78.995ZM89.1621 62.2473V78.995H85.7229V62.2473H89.1621ZM94.3153 62.2473V64.9504H80.6503V62.2473H94.3153ZM92.959 77.3961C92.959 76.9054 93.1277 76.4951 93.4651 76.1654C93.8102 75.8356 94.2664 75.6708 94.8339 75.6708C95.4013 75.6708 95.8538 75.8356 96.1912 76.1654C96.5363 76.4951 96.7088 76.9054 96.7088 77.3961C96.7088 77.8869 96.5363 78.2972 96.1912 78.6269C95.8538 78.9567 95.4013 79.1215 94.8339 79.1215C94.2664 79.1215 93.8102 78.9567 93.4651 78.6269C93.1277 78.2972 92.959 77.8869 92.959 77.3961Z" fill="black"/>
</svg>
