<svg width="27" height="28" viewBox="0 0 27 28" fill="none" xmlns="http://www.w3.org/2000/svg">
<path d="M19.125 2.46582H7.875C4.7684 2.46582 2.25 4.98422 2.25 8.09082V19.3408C2.25 22.4474 4.7684 24.9658 7.875 24.9658H19.125C22.2316 24.9658 24.75 22.4474 24.75 19.3408V8.09082C24.75 4.98422 22.2316 2.46582 19.125 2.46582Z" stroke="#1A171B" stroke-width="2" stroke-linecap="round" stroke-linejoin="round"/>
<path d="M17.9999 13.0069C18.1388 13.9432 17.9788 14.8994 17.5429 15.7396C17.107 16.5797 16.4172 17.261 15.5717 17.6866C14.7263 18.1121 13.7682 18.2602 12.8337 18.1098C11.8992 17.9595 11.0359 17.5183 10.3666 16.849C9.69732 16.1797 9.25611 15.3164 9.10574 14.3819C8.95537 13.4474 9.10349 12.4893 9.52903 11.6438C9.95458 10.7984 10.6359 10.1086 11.476 9.67269C12.3162 9.23676 13.2724 9.07683 14.2087 9.21567C15.1637 9.35729 16.0479 9.80232 16.7306 10.485C17.4133 11.1677 17.8583 12.0519 17.9999 13.0069Z" stroke="#1A171B" stroke-width="2" stroke-linecap="round" stroke-linejoin="round"/>
<path d="M20.2439 7.44581C20.2613 7.56285 20.2413 7.68237 20.1868 7.78739C20.1323 7.89241 20.0461 7.97757 19.9404 8.03076C19.8347 8.08396 19.7149 8.10247 19.5981 8.08368C19.4813 8.06488 19.3734 8.00973 19.2898 7.92607C19.2061 7.84241 19.1509 7.7345 19.1321 7.61768C19.1133 7.50087 19.1319 7.38111 19.1851 7.27543C19.2382 7.16974 19.3234 7.08352 19.4284 7.02903C19.5334 6.97454 19.653 6.95455 19.77 6.97191C19.8894 6.98961 19.9999 7.04524 20.0852 7.13057C20.1706 7.21591 20.2262 7.32643 20.2439 7.44581Z" stroke="#1A171B" stroke-width="2" stroke-linecap="round" stroke-linejoin="round"/>
</svg>
