<svg width="315" height="83" viewBox="0 0 315 83" fill="none" xmlns="http://www.w3.org/2000/svg">
<path d="M76.0568 37.0119C76.1808 37.6003 76.4515 38.0879 76.8694 38.4747C77.2874 38.8614 77.8062 39.0551 78.4251 39.0551C78.92 39.0551 79.3267 38.9623 79.6438 38.7765C79.9609 38.5908 80.213 38.3393 80.3987 38.0222C80.5845 37.7045 80.7158 37.3336 80.7934 36.9077C80.8704 36.4818 80.9089 36.0294 80.9089 35.5491V24.2422H83.2075V35.642C83.2075 36.2151 83.1458 36.8188 83.0218 37.453C82.8984 38.0879 82.6655 38.6763 82.3252 39.2177C81.9849 39.7597 81.5092 40.2081 80.8976 40.5644C80.2859 40.9199 79.5005 41.0984 78.5412 41.0984C77.2874 41.0984 76.2658 40.7733 75.4763 40.1232C74.6869 39.4731 74.1681 38.6372 73.9207 37.6156L76.0568 37.0119Z" fill="white"/>
<path d="M89.1748 39.2875C89.1748 39.6902 89.0275 40.0458 88.7336 40.3556C88.4391 40.6654 88.0683 40.82 87.6191 40.82C87.1859 40.82 86.8184 40.6687 86.5166 40.3676C86.2147 40.0657 86.0635 39.7134 86.0635 39.3108C86.0635 38.8928 86.2108 38.5326 86.5053 38.2308C86.7985 37.9296 87.17 37.7783 87.6191 37.7783C88.0683 37.7783 88.4391 37.9256 88.7336 38.2195C89.0275 38.5134 89.1748 38.8696 89.1748 39.2875Z" fill="white"/>
<path d="M94.4679 31.51H96.9059C97.4632 31.51 97.9773 31.4602 98.4503 31.3587C98.922 31.2586 99.328 31.104 99.6689 30.895C100.009 30.6861 100.273 30.4114 100.458 30.0704C100.643 29.7308 100.737 29.3122 100.737 28.8173C100.737 28.3217 100.64 27.9078 100.446 27.5747C100.253 27.2417 99.99 26.971 99.657 26.7621C99.324 26.5531 98.9259 26.4065 98.4616 26.3209C97.9972 26.236 97.4943 26.1935 96.9523 26.1935H94.4679V31.51ZM92.1699 24.2432H97.1845C98.0668 24.2432 98.8715 24.3327 99.5993 24.5105C100.326 24.6883 100.945 24.9629 101.457 25.3344C101.967 25.706 102.362 26.1783 102.64 26.7508C102.919 27.3233 103.058 28.0126 103.058 28.8173C103.058 29.6372 102.908 30.3418 102.606 30.9295C102.304 31.518 101.886 31.9976 101.352 32.3691C100.818 32.7406 100.183 33.0159 99.448 33.1937C98.713 33.3715 97.9196 33.4604 97.0684 33.4604H94.4679V40.6808H92.1699V24.2432Z" fill="white"/>
<path d="M104.753 39.2875C104.753 39.6902 104.606 40.0458 104.312 40.3556C104.017 40.6654 103.647 40.82 103.198 40.82C102.764 40.82 102.397 40.6687 102.095 40.3676C101.793 40.0657 101.642 39.7134 101.642 39.3108C101.642 38.8928 101.789 38.5326 102.084 38.2308C102.377 37.9296 102.748 37.7783 103.198 37.7783C103.647 37.7783 104.017 37.9256 104.312 38.2195C104.606 38.5134 104.753 38.8696 104.753 39.2875Z" fill="white"/>
<path d="M114.69 38.7301H117.569C118.048 38.7301 118.532 38.6876 119.02 38.602C119.507 38.5178 119.948 38.3665 120.343 38.1496C120.738 37.9333 121.055 37.6428 121.295 37.2792C121.535 36.9157 121.655 36.4546 121.655 35.8974C121.655 34.9222 121.322 34.2183 120.657 33.7851C119.991 33.3519 119.032 33.135 117.778 33.135H114.69V38.7301ZM114.69 31.1846H117.685C118.118 31.1846 118.532 31.1342 118.927 31.034C119.321 30.9332 119.666 30.7786 119.96 30.569C120.254 30.3607 120.486 30.0973 120.657 29.7802C120.827 29.4624 120.912 29.0797 120.912 28.6305C120.912 27.7482 120.587 27.118 119.937 26.7385C119.287 26.3591 118.413 26.1693 117.313 26.1693H114.69V31.1846ZM112.392 24.2422H118.056C118.675 24.2422 119.294 24.3125 119.914 24.4518C120.533 24.5905 121.086 24.8227 121.574 25.1477C122.061 25.4728 122.456 25.8993 122.758 26.4248C123.06 26.9515 123.21 27.6089 123.21 28.3984C123.21 29.3119 122.947 30.0781 122.421 30.697C121.895 31.3166 121.198 31.7419 120.332 31.9741V32.0205C120.858 32.0822 121.345 32.2175 121.794 32.4265C122.243 32.6355 122.63 32.9108 122.955 33.2504C123.28 33.5914 123.531 33.9941 123.71 34.4585C123.888 34.9222 123.976 35.441 123.976 36.0135C123.976 36.8029 123.814 37.4922 123.489 38.0799C123.164 38.6684 122.723 39.152 122.165 39.5308C121.609 39.9109 120.954 40.1968 120.204 40.3905C119.453 40.5843 118.652 40.6805 117.801 40.6805H112.392V24.2422Z" fill="white"/>
<path d="M133.032 35.4341C132.49 35.4341 131.929 35.4574 131.348 35.5038C130.768 35.5502 130.242 35.6431 129.77 35.7824C129.298 35.9217 128.907 36.1307 128.597 36.4093C128.288 36.688 128.133 37.0588 128.133 37.5238C128.133 37.8489 128.199 38.1196 128.33 38.3365C128.462 38.5528 128.636 38.7305 128.852 38.8705C129.069 39.0092 129.309 39.1067 129.572 39.1604C129.836 39.2148 130.106 39.242 130.385 39.242C131.406 39.242 132.192 38.9362 132.741 38.3245C133.291 37.7136 133.566 36.9434 133.566 36.0146V35.4341H133.032ZM133.566 33.5534C133.566 32.7335 133.318 32.1258 132.823 31.7311C132.327 31.3363 131.669 31.1387 130.849 31.1387C130.23 31.1387 129.646 31.2587 129.097 31.4989C128.547 31.739 128.086 32.0442 127.715 32.4157L126.554 31.0226C127.096 30.5117 127.757 30.1097 128.539 29.8152C129.321 29.5213 130.161 29.374 131.058 29.374C131.848 29.374 132.533 29.4868 133.113 29.711C133.693 29.9353 134.17 30.2411 134.541 30.6278C134.913 31.0153 135.191 31.4717 135.377 31.9978C135.563 32.5245 135.655 33.089 135.655 33.6927V38.499C135.655 38.8705 135.667 39.2613 135.69 39.6712C135.713 40.0812 135.756 40.4182 135.818 40.6809H133.844C133.72 40.1549 133.659 39.6288 133.659 39.102H133.589C133.186 39.6911 132.68 40.1469 132.068 40.472C131.456 40.797 130.733 40.9596 129.897 40.9596C129.464 40.9596 129.011 40.9018 128.539 40.7857C128.067 40.6697 127.638 40.4799 127.25 40.2172C126.864 39.9538 126.542 39.6056 126.287 39.1724C126.032 38.7392 125.904 38.2051 125.904 37.5703C125.904 36.7344 126.128 36.0723 126.578 35.5854C127.026 35.0971 127.615 34.7256 128.342 34.4702C129.069 34.2155 129.889 34.049 130.803 33.9714C131.716 33.8944 132.637 33.8553 133.566 33.8553V33.5534Z" fill="white"/>
<path d="M138.813 30.9065C138.797 30.4421 138.774 30.0321 138.743 29.6759H140.809C140.841 29.9545 140.864 30.2762 140.879 30.6391C140.894 31.0033 140.902 31.3012 140.902 31.5334H140.972C141.281 30.8832 141.734 30.3612 142.33 29.9658C142.926 29.5711 143.596 29.374 144.338 29.374C144.679 29.374 144.965 29.4052 145.198 29.4669L145.105 31.4869C144.794 31.4093 144.462 31.3708 144.106 31.3708C143.58 31.3708 143.123 31.4677 142.737 31.6607C142.349 31.8545 142.028 32.1138 141.773 32.4389C141.518 32.764 141.328 33.1388 141.204 33.5647C141.08 33.9906 141.018 34.4357 141.018 34.8994V40.6809H138.836V32.0442C138.836 31.7503 138.828 31.3708 138.813 30.9065Z" fill="white"/>
<path d="M146.753 30.9065C146.738 30.4421 146.714 30.0321 146.683 29.6759H148.75C148.781 29.9545 148.804 30.2762 148.819 30.6391C148.834 31.0033 148.842 31.3012 148.842 31.5334H148.912C149.222 30.8832 149.674 30.3612 150.27 29.9658C150.866 29.5711 151.536 29.374 152.278 29.374C152.619 29.374 152.905 29.4052 153.138 29.4669L153.045 31.4869C152.735 31.4093 152.402 31.3708 152.047 31.3708C151.52 31.3708 151.064 31.4677 150.677 31.6607C150.289 31.8545 149.968 32.1138 149.713 32.4389C149.458 32.764 149.268 33.1388 149.144 33.5647C149.02 33.9906 148.959 34.4357 148.959 34.8994V40.6809H146.776V32.0442C146.776 31.7503 146.768 31.3708 146.753 30.9065Z" fill="white"/>
<path d="M160.73 35.4341C160.188 35.4341 159.627 35.4574 159.047 35.5038C158.466 35.5502 157.94 35.6431 157.468 35.7824C156.996 35.9217 156.605 36.1307 156.295 36.4093C155.986 36.688 155.831 37.0588 155.831 37.5238C155.831 37.8489 155.897 38.1196 156.029 38.3365C156.16 38.5528 156.333 38.7305 156.55 38.8705C156.767 39.0092 157.008 39.1067 157.271 39.1604C157.534 39.2148 157.804 39.242 158.084 39.242C159.104 39.242 159.891 38.9362 160.44 38.3245C160.989 37.7136 161.265 36.9434 161.265 36.0146V35.4341H160.73ZM161.265 33.5534C161.265 32.7335 161.016 32.1258 160.522 31.7311C160.025 31.3363 159.368 31.1387 158.547 31.1387C157.928 31.1387 157.344 31.2587 156.795 31.4989C156.245 31.739 155.784 32.0442 155.413 32.4157L154.252 31.0226C154.794 30.5117 155.456 30.1097 156.237 29.8152C157.019 29.5213 157.859 29.374 158.757 29.374C159.546 29.374 160.231 29.4868 160.811 29.711C161.392 29.9353 161.868 30.2411 162.239 30.6278C162.611 31.0153 162.889 31.4717 163.075 31.9978C163.261 32.5245 163.354 33.089 163.354 33.6927V38.499C163.354 38.8705 163.365 39.2613 163.388 39.6712C163.412 40.0812 163.454 40.4182 163.516 40.6809H161.542C161.418 40.1549 161.357 39.6288 161.357 39.102H161.287C160.884 39.6911 160.378 40.1469 159.767 40.472C159.155 40.797 158.432 40.9596 157.595 40.9596C157.162 40.9596 156.709 40.9018 156.237 40.7857C155.765 40.6697 155.336 40.4799 154.949 40.2172C154.562 39.9538 154.24 39.6056 153.986 39.1724C153.73 38.7392 153.602 38.2051 153.602 37.5703C153.602 36.7344 153.827 36.0723 154.276 35.5854C154.725 35.0971 155.313 34.7256 156.04 34.4702C156.767 34.2155 157.588 34.049 158.501 33.9714C159.414 33.8944 160.335 33.8553 161.265 33.8553V33.5534Z" fill="white"/>
<path d="M172.477 32.4621C172.23 32.0601 171.881 31.7311 171.432 31.4757C170.983 31.2203 170.48 31.0922 169.923 31.0922C169.676 31.0922 169.428 31.1194 169.18 31.1738C168.933 31.2282 168.712 31.3131 168.519 31.4292C168.324 31.5453 168.17 31.6926 168.054 31.8704C167.938 32.0482 167.88 32.2684 167.88 32.5318C167.88 32.9962 168.089 33.3411 168.507 33.5654C168.925 33.7896 169.552 33.9946 170.388 34.1803C170.914 34.3044 171.401 34.4516 171.85 34.6215C172.299 34.792 172.69 35.0043 173.023 35.2597C173.356 35.5151 173.615 35.8209 173.8 36.1771C173.986 36.5334 174.079 36.9513 174.079 37.431C174.079 38.0804 173.955 38.6304 173.708 39.0788C173.46 39.5279 173.131 39.8955 172.721 40.1821C172.31 40.4686 171.842 40.6736 171.316 40.797C170.79 40.9211 170.248 40.9828 169.691 40.9828C168.856 40.9828 168.038 40.8202 167.242 40.4952C166.444 40.1708 165.783 39.6752 165.257 39.0092L166.812 37.6857C167.106 38.1196 167.512 38.4831 168.031 38.777C168.549 39.0715 169.118 39.2188 169.737 39.2188C170.016 39.2188 170.283 39.1916 170.538 39.1372C170.794 39.0835 171.026 38.9946 171.235 38.8705C171.444 38.7465 171.61 38.5839 171.734 38.3823C171.858 38.1813 171.92 37.9258 171.92 37.6167C171.92 37.1059 171.676 36.7264 171.188 36.479C170.701 36.2315 169.986 35.9993 169.041 35.7824C168.669 35.6895 168.294 35.5774 167.915 35.4454C167.536 35.3141 167.191 35.1323 166.881 34.9001C166.572 34.6679 166.321 34.3773 166.127 34.0291C165.933 33.6808 165.837 33.2516 165.837 32.7408C165.837 32.153 165.957 31.6462 166.197 31.2203C166.436 30.7944 166.75 30.4461 167.137 30.1754C167.524 29.9047 167.965 29.7031 168.461 29.5717C168.955 29.4404 169.467 29.374 169.993 29.374C170.782 29.374 171.544 29.5293 172.28 29.8391C173.015 30.1482 173.584 30.5973 173.986 31.1851L172.477 32.4621Z" fill="white"/>
<path d="M184.132 38.6372H192.723V40.6805H181.834V24.2422H192.374V26.2622H184.132V31.1846H191.887V33.1576H184.132V38.6372Z" fill="white"/>
<path d="M195.253 23.1284H197.436V40.6805H195.253V23.1284Z" fill="white"/>
<path d="M208.835 34.2035C208.82 33.7703 208.746 33.3643 208.615 32.9849C208.484 32.6054 208.29 32.2764 208.034 31.9978C207.779 31.7191 207.461 31.4989 207.082 31.3363C206.703 31.1738 206.258 31.0922 205.747 31.0922C205.283 31.0922 204.846 31.1738 204.435 31.3363C204.026 31.4989 203.67 31.7191 203.368 31.9978C203.066 32.2764 202.818 32.6054 202.625 32.9849C202.431 33.3643 202.319 33.7703 202.288 34.2035H208.835ZM211.064 35.0859V35.4574C211.064 35.5814 211.056 35.7048 211.041 35.8289H202.288C202.303 36.2906 202.408 36.7244 202.601 37.1318C202.795 37.5391 203.054 37.8927 203.379 38.1925C203.704 38.4917 204.079 38.7266 204.505 38.8951C204.931 39.0642 205.384 39.1491 205.864 39.1491C206.606 39.1491 207.249 38.9866 207.79 38.6616C208.332 38.3365 208.758 37.9418 209.068 37.4774L210.6 38.708C210.011 39.4875 209.319 40.062 208.522 40.4308C207.725 40.799 206.839 40.9834 205.864 40.9834C205.028 40.9834 204.254 40.8435 203.542 40.5655C202.83 40.2869 202.218 39.8961 201.708 39.3926C201.197 38.8898 200.795 38.2821 200.5 37.5703C200.206 36.8584 200.059 36.069 200.059 35.2019C200.059 34.3508 200.203 33.5654 200.49 32.8456C200.776 32.1258 201.176 31.5102 201.688 30.9993C202.2 30.4885 202.804 30.0905 203.503 29.8039C204.201 29.518 204.952 29.374 205.759 29.374C206.566 29.374 207.299 29.506 207.958 29.7687C208.618 30.0328 209.175 30.4116 209.633 30.9071C210.091 31.4027 210.444 32.0017 210.692 32.7063C210.94 33.4108 211.064 34.2035 211.064 35.0859Z" fill="white"/>
<path d="M221.326 32.4621C221.094 32.1065 220.746 31.8087 220.281 31.5685C219.818 31.3284 219.321 31.2083 218.795 31.2083C218.224 31.2083 217.716 31.3171 217.275 31.5334C216.834 31.7503 216.458 32.0409 216.149 32.4037C215.839 32.768 215.604 33.1899 215.441 33.6695C215.278 34.1498 215.197 34.6527 215.197 35.1787C215.197 35.7048 215.278 36.2083 215.441 36.6873C215.604 37.1676 215.839 37.5895 216.149 37.953C216.458 38.3166 216.838 38.6072 217.287 38.8241C217.735 39.041 218.246 39.1491 218.819 39.1491C219.376 39.1491 219.883 39.041 220.34 38.8241C220.796 38.6072 221.172 38.3126 221.466 37.9418L222.928 39.2646C222.465 39.8066 221.883 40.2285 221.187 40.5303C220.49 40.8322 219.702 40.9828 218.819 40.9828C217.968 40.9828 217.182 40.8435 216.463 40.5648C215.742 40.2862 215.119 39.8955 214.593 39.3926C214.067 38.8898 213.653 38.2821 213.352 37.5703C213.05 36.8578 212.898 36.061 212.898 35.1787C212.898 34.3117 213.046 33.5222 213.34 32.8104C213.634 32.0986 214.043 31.4869 214.57 30.9761C215.096 30.4653 215.72 30.0706 216.439 29.792C217.159 29.514 217.936 29.374 218.773 29.374C219.546 29.374 220.317 29.5293 221.083 29.8391C221.848 30.1482 222.456 30.5973 222.905 31.1851L221.326 32.4621Z" fill="white"/>
<path d="M230.009 31.4635H227.084V37.1806C227.084 37.8447 227.208 38.319 227.455 38.6043C227.703 38.8902 228.098 39.0322 228.64 39.0322C228.841 39.0322 229.057 39.0116 229.29 38.9685C229.522 38.926 229.731 38.8623 229.917 38.7768L229.986 40.5646C229.723 40.6575 229.433 40.7311 229.115 40.7855C228.798 40.8393 228.47 40.8665 228.129 40.8665C227.091 40.8665 226.298 40.5805 225.749 40.0074C225.2 39.4349 224.925 38.5758 224.925 37.4307V31.4635H222.812V29.6757H224.925V26.5186H227.084V29.6757H230.009V31.4635Z" fill="white"/>
<path d="M231.774 30.9065C231.758 30.4421 231.735 30.0321 231.704 29.6759H233.771C233.801 29.9545 233.825 30.2762 233.84 30.6391C233.855 31.0033 233.864 31.3012 233.864 31.5334H233.933C234.242 30.8832 234.695 30.3612 235.291 29.9658C235.887 29.5711 236.557 29.374 237.299 29.374C237.64 29.374 237.926 29.4052 238.159 29.4669L238.066 31.4869C237.756 31.4093 237.423 31.3708 237.067 31.3708C236.541 31.3708 236.085 31.4677 235.697 31.6607C235.31 31.8545 234.989 32.1138 234.734 32.4389C234.479 32.764 234.289 33.1388 234.166 33.5647C234.041 33.9906 233.979 34.4357 233.979 34.8994V40.6809H231.797V32.0442C231.797 31.7503 231.789 31.3708 231.774 30.9065Z" fill="white"/>
<path d="M241.943 40.6809H239.76V29.6758H241.943V40.6809ZM242.291 25.7061C242.291 26.1081 242.149 26.4411 241.864 26.7038C241.58 26.9678 241.239 27.0992 240.84 27.0992C240.441 27.0992 240.103 26.9632 239.826 26.6925C239.55 26.4219 239.412 26.0928 239.412 25.7061C239.412 25.3034 239.55 24.967 239.826 24.6957C240.103 24.425 240.441 24.2891 240.84 24.2891C241.239 24.2891 241.58 24.425 241.864 24.6957C242.149 24.967 242.291 25.3034 242.291 25.7061Z" fill="white"/>
<path d="M252.993 32.4621C252.761 32.1065 252.413 31.8087 251.949 31.5685C251.485 31.3284 250.989 31.2083 250.463 31.2083C249.891 31.2083 249.383 31.3171 248.942 31.5334C248.501 31.7503 248.125 32.0409 247.816 32.4037C247.507 32.768 247.271 33.1899 247.108 33.6695C246.945 34.1498 246.864 34.6527 246.864 35.1787C246.864 35.7048 246.945 36.2083 247.108 36.6873C247.271 37.1676 247.507 37.5895 247.816 37.953C248.125 38.3166 248.505 38.6072 248.954 38.8241C249.402 39.041 249.913 39.1491 250.486 39.1491C251.044 39.1491 251.551 39.041 252.007 38.8241C252.463 38.6072 252.839 38.3126 253.133 37.9418L254.596 39.2646C254.132 39.8066 253.551 40.2285 252.854 40.5303C252.158 40.8322 251.368 40.9828 250.486 40.9828C249.635 40.9828 248.849 40.8435 248.13 40.5648C247.41 40.2862 246.787 39.8955 246.261 39.3926C245.735 38.8898 245.321 38.2821 245.019 37.5703C244.716 36.8578 244.566 36.061 244.566 35.1787C244.566 34.3117 244.713 33.5222 245.007 32.8104C245.301 32.0986 245.711 31.4869 246.237 30.9761C246.764 30.4653 247.387 30.0706 248.106 29.792C248.827 29.514 249.603 29.374 250.44 29.374C251.214 29.374 251.984 29.5293 252.75 29.8391C253.516 30.1482 254.123 30.5973 254.572 31.1851L252.993 32.4621Z" fill="white"/>
<path d="M258.496 40.6809H256.314V29.6758H258.496V40.6809ZM258.845 25.7061C258.845 26.1081 258.703 26.4411 258.418 26.7038C258.134 26.9678 257.792 27.0992 257.394 27.0992C256.994 27.0992 256.657 26.9632 256.38 26.6925C256.104 26.4219 255.966 26.0928 255.966 25.7061C255.966 25.3034 256.104 24.967 256.38 24.6957C256.657 24.425 256.994 24.2891 257.394 24.2891C257.792 24.2891 258.134 24.425 258.418 24.6957C258.703 24.967 258.845 25.3034 258.845 25.7061Z" fill="white"/>
<path d="M267.226 31.4635H264.301V37.1806C264.301 37.8447 264.424 38.319 264.672 38.6043C264.919 38.8902 265.314 39.0322 265.857 39.0322C266.057 39.0322 266.274 39.0116 266.506 38.9685C266.738 38.926 266.947 38.8623 267.133 38.7768L267.203 40.5646C266.939 40.6575 266.649 40.7311 266.332 40.7855C266.015 40.8393 265.686 40.8665 265.345 40.8665C264.308 40.8665 263.515 40.5805 262.966 40.0074C262.416 39.4349 262.141 38.5758 262.141 37.4307V31.4635H260.029V29.6757H262.141V26.5186H264.301V29.6757H267.226V31.4635Z" fill="white"/>
<path d="M274.617 27.5857H272.83L275.151 24.2422H277.772L274.617 27.5857ZM277.069 34.2024C277.054 33.7692 276.98 33.3632 276.848 32.9837C276.717 32.6049 276.524 32.2759 276.268 31.9973C276.012 31.7186 275.695 31.4977 275.316 31.3352C274.936 31.1727 274.492 31.0917 273.981 31.0917C273.517 31.0917 273.08 31.1727 272.67 31.3352C272.259 31.4977 271.903 31.7186 271.602 31.9973C271.3 32.2759 271.052 32.6049 270.859 32.9837C270.665 33.3632 270.553 33.7692 270.522 34.2024H277.069ZM279.298 35.0847V35.4562C279.298 35.5803 279.29 35.7043 279.275 35.8277H270.522C270.537 36.2894 270.642 36.7233 270.835 37.1306C271.028 37.5379 271.288 37.8915 271.613 38.1914C271.938 38.4912 272.313 38.7254 272.739 38.8946C273.165 39.0638 273.618 39.148 274.097 39.148C274.84 39.148 275.482 38.9855 276.024 38.6604C276.566 38.3354 276.992 37.9406 277.301 37.4763L278.834 38.7069C278.245 39.487 277.553 40.0608 276.755 40.4297C275.959 40.7979 275.073 40.9823 274.097 40.9823C273.261 40.9823 272.487 40.843 271.776 40.5644C271.064 40.2857 270.452 39.895 269.942 39.3915C269.431 38.8893 269.028 38.2816 268.734 37.5691C268.44 36.8573 268.293 36.0679 268.293 35.2008C268.293 34.3497 268.437 33.5642 268.724 32.8444C269.01 32.1246 269.41 31.509 269.921 30.9989C270.433 30.4881 271.038 30.0894 271.737 29.8028C272.434 29.5168 273.186 29.3735 273.993 29.3735C274.8 29.3735 275.533 29.5049 276.192 29.7683C276.852 30.0316 277.41 30.4104 277.867 30.906C278.324 31.4015 278.678 32.0013 278.926 32.7051C279.174 33.4096 279.298 34.2024 279.298 35.0847Z" fill="white"/>
<path d="M295.481 27.2838C295.156 26.8354 294.715 26.4678 294.158 26.1806C293.601 25.8947 292.974 25.7514 292.277 25.7514C291.906 25.7514 291.53 25.8018 291.151 25.9026C290.771 26.0035 290.427 26.166 290.118 26.3902C289.808 26.6145 289.556 26.8931 289.363 27.2254C289.17 27.5591 289.073 27.9572 289.073 28.4215C289.073 28.8707 289.162 29.2455 289.34 29.5473C289.518 29.8492 289.758 30.1046 290.06 30.3135C290.362 30.5225 290.717 30.701 291.128 30.8476C291.538 30.9949 291.975 31.1461 292.44 31.3007C292.997 31.4712 293.561 31.6642 294.135 31.8805C294.707 32.0981 295.226 32.384 295.69 32.7402C296.154 33.0958 296.533 33.541 296.828 34.075C297.121 34.609 297.269 35.2864 297.269 36.1063C297.269 36.9581 297.11 37.6971 296.793 38.324C296.476 38.9503 296.054 39.4691 295.528 39.879C295.001 40.2897 294.394 40.5955 293.705 40.7965C293.016 40.9975 292.308 41.0984 291.58 41.0984C290.544 41.0984 289.541 40.8967 288.574 40.4947C287.606 40.092 286.805 39.4963 286.171 38.7068L287.959 37.1976C288.346 37.7701 288.865 38.2351 289.515 38.5907C290.165 38.947 290.869 39.1248 291.627 39.1248C292.014 39.1248 292.4 39.0704 292.788 38.9622C293.175 38.8541 293.527 38.6836 293.844 38.4514C294.161 38.2192 294.42 37.9293 294.622 37.581C294.823 37.2321 294.924 36.8108 294.924 36.3153C294.924 35.8204 294.82 35.4064 294.611 35.0734C294.401 34.7404 294.119 34.4578 293.763 34.2256C293.407 33.9941 292.993 33.7964 292.521 33.6338C292.049 33.4713 291.549 33.3048 291.023 33.1343C290.497 32.9797 289.978 32.79 289.468 32.5658C288.957 32.3415 288.5 32.055 288.098 31.7067C287.696 31.3584 287.37 30.9292 287.123 30.4184C286.875 29.9076 286.752 29.2733 286.752 28.5144C286.752 27.6938 286.917 26.9899 287.25 26.4015C287.584 25.8137 288.017 25.3261 288.551 24.9387C289.085 24.5526 289.688 24.27 290.362 24.0916C291.035 23.9138 291.712 23.8242 292.393 23.8242C293.352 23.8242 294.25 23.9947 295.087 24.3357C295.922 24.676 296.595 25.1324 297.106 25.7049L295.481 27.2838Z" fill="white"/>
<path d="M303.188 34.6203H309.341L306.277 26.9124L303.188 34.6203ZM300.727 40.6805H298.174L305.301 24.2422H307.391L314.449 40.6805H311.848L310.177 36.6404H302.376L300.727 40.6805Z" fill="white"/>
<path d="M82.5022 54.8156C82.1771 54.3671 81.7359 53.9996 81.1787 53.7123C80.6214 53.4264 79.9945 53.2831 79.298 53.2831C78.9265 53.2831 78.551 53.3335 78.1715 53.4344C77.7927 53.5352 77.4484 53.6977 77.1386 53.922C76.8288 54.1462 76.5774 54.4248 76.3843 54.7572C76.1906 55.0909 76.0938 55.4889 76.0938 55.9533C76.0938 56.4024 76.1827 56.7772 76.3611 57.0791C76.5389 57.3809 76.779 57.6363 77.0809 57.8453C77.3827 58.0543 77.7383 58.2327 78.149 58.3793C78.5589 58.5266 78.9961 58.6778 79.4605 58.8324C80.0177 59.0029 80.5823 59.196 81.1555 59.4122C81.728 59.6298 82.2467 59.9157 82.7111 60.272C83.1748 60.6276 83.5543 61.0727 83.8482 61.6067C84.1427 62.1408 84.29 62.8181 84.29 63.6381C84.29 64.4899 84.1308 65.2289 83.8137 65.8558C83.4966 66.482 83.0747 67.0008 82.5486 67.4108C82.0219 67.8214 81.4142 68.1272 80.7262 68.3283C80.037 68.5293 79.3291 68.6301 78.6014 68.6301C77.5645 68.6301 76.5621 68.4284 75.5949 68.0264C74.627 67.6237 73.8263 67.028 73.1914 66.2386L74.9799 64.7293C75.366 65.3018 75.8848 65.7669 76.5349 66.1225C77.185 66.4787 77.8896 66.6565 78.6478 66.6565C79.0346 66.6565 79.422 66.6021 79.8088 66.494C80.1955 66.3858 80.5478 66.2153 80.8649 65.9832C81.182 65.751 81.442 65.4611 81.6431 65.1128C81.8441 64.7638 81.9449 64.3426 81.9449 63.847C81.9449 63.3521 81.8401 62.9382 81.6311 62.6051C81.4221 62.2721 81.1395 61.9895 80.784 61.7573C80.4277 61.5258 80.0138 61.3281 79.5414 61.1656C79.0697 61.003 78.5702 60.8372 78.0441 60.666C77.5181 60.5121 77 60.3217 76.4885 60.0975C75.9783 59.8733 75.5212 59.5867 75.1186 59.2384C74.7159 58.8901 74.3915 58.4609 74.1434 57.9501C73.8959 57.4393 73.7725 56.8051 73.7725 56.0462C73.7725 55.2262 73.9384 54.5217 74.2714 53.9332C74.6038 53.3455 75.0376 52.8579 75.5717 52.4705C76.1057 52.0844 76.7094 51.8018 77.3827 51.6233C78.0561 51.4455 78.7327 51.356 79.4141 51.356C80.374 51.356 81.2716 51.5264 82.1074 51.8674C82.9433 52.2078 83.6167 52.6642 84.1275 53.2367L82.5022 54.8156Z" fill="white"/>
<path d="M89.2351 58.879C89.4978 58.3376 89.9469 57.8732 90.5818 57.4858C91.216 57.0991 91.9285 56.9054 92.7179 56.9054C93.4298 56.9054 94.0414 57.0254 94.5516 57.2656C95.0624 57.5057 95.4883 57.8268 95.8286 58.2288C96.1689 58.6315 96.421 59.1032 96.5835 59.6452C96.7461 60.1872 96.827 60.7676 96.827 61.3866V68.2123H94.6451V62.1143C94.6451 61.6646 94.6099 61.2373 94.5403 60.834C94.4706 60.4306 94.3433 60.0744 94.1568 59.7639C93.9718 59.4535 93.7197 59.2053 93.4026 59.0189C93.0855 58.8332 92.6715 58.7396 92.1607 58.7396C91.2936 58.7396 90.5818 59.0694 90.0246 59.7288C89.4673 60.3888 89.1887 61.2692 89.1887 62.3704V68.2123H87.0061V50.6602H89.1887V58.879H89.2351Z" fill="white"/>
<path d="M108.923 62.698C108.923 62.1733 108.842 61.6718 108.679 61.1935C108.516 60.7152 108.279 60.2952 107.969 59.9323C107.658 59.5695 107.273 59.2802 106.816 59.064C106.357 58.8477 105.833 58.7396 105.243 58.7396C104.653 58.7396 104.129 58.8477 103.671 59.064C103.213 59.2802 102.829 59.5695 102.518 59.9323C102.208 60.2952 101.971 60.7152 101.808 61.1935C101.644 61.6718 101.563 62.1733 101.563 62.698C101.563 63.2234 101.644 63.725 101.808 64.2026C101.971 64.6816 102.208 65.1062 102.518 65.4763C102.829 65.8465 103.213 66.1397 103.671 66.356C104.129 66.5723 104.653 66.6804 105.243 66.6804C105.833 66.6804 106.357 66.5723 106.816 66.356C107.273 66.1397 107.658 65.8465 107.969 65.4763C108.279 65.1062 108.516 64.6816 108.679 64.2026C108.842 63.725 108.923 63.2234 108.923 62.698ZM111.199 62.6868C111.199 63.5379 111.047 64.32 110.746 65.0319C110.444 65.7437 110.026 66.3587 109.492 66.8774C108.958 67.3962 108.327 67.7982 107.6 68.0848C106.872 68.3707 106.09 68.514 105.255 68.514C104.419 68.514 103.637 68.3707 102.91 68.0848C102.182 67.7982 101.556 67.3962 101.029 66.8774C100.503 66.3587 100.089 65.7437 99.7869 65.0319C99.4851 64.32 99.3345 63.5379 99.3345 62.6868C99.3345 61.8356 99.4851 61.0575 99.7869 60.3536C100.089 59.6491 100.503 59.0414 101.029 58.5306C101.556 58.0198 102.182 57.6217 102.91 57.3352C103.637 57.0486 104.419 56.9053 105.255 56.9053C106.09 56.9053 106.872 57.0486 107.6 57.3352C108.327 57.6217 108.958 58.0198 109.492 58.5306C110.026 59.0414 110.444 59.6491 110.746 60.3536C111.047 61.0575 111.199 61.8356 111.199 62.6868Z" fill="white"/>
<path d="M123.178 62.6868C123.178 62.1759 123.101 61.6811 122.946 61.2008C122.791 60.7211 122.559 60.2952 122.25 59.9237C121.94 59.5522 121.556 59.2583 121.1 59.0414C120.644 58.8251 120.113 58.7163 119.51 58.7163C118.953 58.7163 118.446 58.8251 117.989 59.0414C117.532 59.2583 117.141 59.5522 116.816 59.9237C116.491 60.2952 116.24 60.7211 116.062 61.2008C115.884 61.6811 115.795 62.1839 115.795 62.71C115.795 63.2361 115.884 63.7396 116.062 64.2192C116.24 64.6995 116.491 65.1208 116.816 65.4843C117.141 65.8485 117.532 66.1384 117.989 66.3553C118.446 66.5723 118.953 66.6804 119.51 66.6804C120.113 66.6804 120.644 66.5676 121.1 66.3434C121.556 66.1192 121.94 65.8213 122.25 65.4498C122.559 65.0783 122.791 64.6524 122.946 64.1728C123.101 63.6931 123.178 63.1976 123.178 62.6868ZM115.935 73.7847H113.752V57.2071H115.888V58.9253H115.958C116.313 58.3375 116.834 57.8539 117.521 57.4745C118.208 57.0957 119.007 56.9053 119.918 56.9053C120.736 56.9053 121.481 57.0532 122.153 57.3464C122.825 57.641 123.404 58.051 123.89 58.577C124.376 59.1038 124.751 59.7187 125.013 60.4233C125.276 61.1271 125.407 61.8821 125.407 62.6868C125.407 63.4915 125.276 64.2504 125.013 64.9622C124.751 65.674 124.38 66.2936 123.901 66.8197C123.423 67.3458 122.844 67.7597 122.165 68.0616C121.485 68.3634 120.721 68.514 119.872 68.514C119.085 68.514 118.344 68.3435 117.649 68.0032C116.954 67.6635 116.405 67.1833 116.004 66.5643H115.935V73.7847Z" fill="white"/>
<path d="M135.553 68.2125H133.37V57.2074H135.553V68.2125ZM135.901 53.2376C135.901 53.6403 135.759 53.9727 135.475 54.2354C135.191 54.4994 134.849 54.6308 134.45 54.6308C134.051 54.6308 133.713 54.4948 133.437 54.2241C133.16 53.9534 133.022 53.6244 133.022 53.2376C133.022 52.835 133.16 52.4986 133.437 52.2273C133.713 51.9566 134.051 51.8213 134.45 51.8213C134.849 51.8213 135.191 51.9566 135.475 52.2273C135.759 52.4986 135.901 52.835 135.901 53.2376Z" fill="white"/>
<path d="M140.869 57.2071C140.9 57.4857 140.923 57.7989 140.939 58.1471C140.954 58.4954 140.962 58.786 140.962 59.0182H141.031C141.171 58.7243 141.361 58.449 141.601 58.1936C141.84 57.9388 142.115 57.7146 142.425 57.5202C142.734 57.3272 143.075 57.1766 143.446 57.0678C143.818 56.9597 144.205 56.9053 144.607 56.9053C145.319 56.9053 145.931 57.0253 146.441 57.2655C146.952 57.5056 147.378 57.8267 147.718 58.2287C148.059 58.6314 148.31 59.1031 148.473 59.6451C148.635 60.1871 148.716 60.7676 148.716 61.3865V68.2122H146.534V62.1056C146.534 61.6572 146.499 61.2319 146.43 60.8293C146.36 60.4266 146.233 60.071 146.047 59.7612C145.861 59.4514 145.606 59.2039 145.281 59.0182C144.955 58.8324 144.538 58.7396 144.027 58.7396C143.16 58.7396 142.451 59.0686 141.903 59.726C141.353 60.3841 141.078 61.2625 141.078 62.3617V68.2122H138.895V59.5754C138.895 59.2816 138.887 58.9021 138.872 58.4377C138.857 57.9733 138.834 57.5634 138.802 57.2071H140.869Z" fill="white"/>
<path d="M171.493 65.6591C170.842 66.5414 169.999 67.2572 168.962 67.8065C167.924 68.3558 166.679 68.6304 165.224 68.6304C163.97 68.6304 162.813 68.4175 161.752 67.9922C160.692 67.5663 159.78 66.9706 159.014 66.2044C158.247 65.4382 157.647 64.5253 157.215 63.4652C156.781 62.4051 156.564 61.2402 156.564 59.9705C156.564 58.6861 156.784 57.5139 157.225 56.4531C157.666 55.393 158.279 54.4875 159.059 53.7365C159.841 52.9862 160.766 52.4018 161.834 51.9838C162.902 51.5659 164.063 51.3569 165.317 51.3569C165.874 51.3569 166.439 51.4113 167.012 51.5195C167.583 51.6283 168.133 51.7908 168.659 52.0071C169.186 52.224 169.666 52.4907 170.1 52.8084C170.532 53.1255 170.904 53.4931 171.213 53.911L169.403 55.3041C169 54.7469 168.431 54.2865 167.697 53.9223C166.96 53.5587 166.168 53.377 165.317 53.377C164.357 53.377 163.494 53.5514 162.727 53.8991C161.962 54.2473 161.308 54.7237 160.766 55.3274C160.224 55.931 159.806 56.6316 159.513 57.4283C159.218 58.2257 159.071 59.0735 159.071 59.9705C159.071 60.8992 159.215 61.7663 159.5 62.571C159.787 63.3763 160.196 64.0769 160.731 64.6719C161.266 65.2683 161.915 65.7367 162.682 66.077C163.448 66.4173 164.302 66.5878 165.247 66.5878C166.176 66.5878 167.018 66.4021 167.778 66.0306C168.535 65.6591 169.162 65.1177 169.658 64.4052L171.493 65.6591Z" fill="white"/>
<path d="M173.234 58.4377C173.218 57.9733 173.195 57.5634 173.165 57.2071H175.231C175.262 57.4857 175.285 57.8075 175.3 58.1704C175.315 58.5346 175.324 58.8324 175.324 59.0646H175.393C175.703 58.4145 176.155 57.8924 176.752 57.497C177.347 57.1023 178.017 56.9053 178.76 56.9053C179.1 56.9053 179.387 56.9365 179.619 56.9981L179.526 59.0182C179.216 58.9406 178.884 58.9021 178.527 58.9021C178.001 58.9021 177.545 58.9989 177.158 59.192C176.77 59.3857 176.45 59.6451 176.194 59.9702C175.939 60.2952 175.749 60.67 175.626 61.0959C175.502 61.5218 175.439 61.967 175.439 62.4307V68.2122H173.257V59.5754C173.257 59.2816 173.249 58.9021 173.234 58.4377Z" fill="white"/>
<path d="M187.211 62.9654C186.669 62.9654 186.109 62.9886 185.528 63.035C184.948 63.0815 184.422 63.1744 183.949 63.3137C183.477 63.453 183.086 63.662 182.776 63.9406C182.467 64.2192 182.313 64.5907 182.313 65.0551C182.313 65.3801 182.378 65.6508 182.51 65.8677C182.641 66.0847 182.815 66.2618 183.032 66.4018C183.249 66.5404 183.489 66.6379 183.752 66.6917C184.015 66.7461 184.286 66.7733 184.565 66.7733C185.586 66.7733 186.372 66.4675 186.921 65.8558C187.471 65.2448 187.746 64.4746 187.746 63.5459V62.9654H187.211ZM187.746 61.0847C187.746 60.2647 187.497 59.657 187.003 59.2623C186.507 58.8676 185.849 58.6699 185.029 58.6699C184.41 58.6699 183.825 58.79 183.276 59.0301C182.727 59.2703 182.266 59.5754 181.895 59.9469L180.734 58.5538C181.275 58.043 181.937 57.641 182.719 57.3464C183.5 57.0525 184.34 56.9053 185.238 56.9053C186.027 56.9053 186.712 57.0181 187.293 57.2423C187.873 57.4665 188.35 57.7723 188.72 58.1591C189.093 58.5465 189.371 59.0029 189.556 59.529C189.742 60.0557 189.835 60.6203 189.835 61.224V66.0303C189.835 66.4018 189.847 66.7925 189.869 67.2025C189.893 67.6125 189.935 67.9495 189.998 68.2122H188.024C187.9 67.6868 187.838 67.16 187.838 66.6333H187.769C187.366 67.2224 186.86 67.6781 186.248 68.0032C185.636 68.3283 184.913 68.4908 184.077 68.4908C183.644 68.4908 183.19 68.4331 182.719 68.317C182.246 68.2009 181.817 68.0118 181.43 67.7485C181.043 67.4851 180.722 67.1368 180.467 66.7036C180.211 66.2704 180.084 65.7364 180.084 65.1015C180.084 64.2656 180.308 63.6036 180.757 63.1166C181.206 62.6284 181.794 62.2569 182.522 62.0015C183.249 61.7467 184.069 61.5802 184.982 61.5026C185.896 61.4256 186.817 61.3865 187.746 61.3865V61.0847Z" fill="white"/>
<path d="M194.99 57.2071C195.02 57.4857 195.043 57.7989 195.059 58.1471C195.074 58.4954 195.082 58.786 195.082 59.0182H195.151C195.291 58.7243 195.48 58.449 195.721 58.1936C195.96 57.9388 196.235 57.7146 196.545 57.5202C196.854 57.3272 197.195 57.1766 197.567 57.0678C197.938 56.9597 198.324 56.9053 198.728 56.9053C199.439 56.9053 200.051 57.0253 200.561 57.2655C201.072 57.5056 201.498 57.8267 201.838 58.2287C202.179 58.6314 202.431 59.1031 202.593 59.6451C202.755 60.1871 202.837 60.7676 202.837 61.3865V68.2122H200.654V62.1056C200.654 61.6572 200.62 61.2319 200.549 60.8293C200.48 60.4266 200.352 60.071 200.167 59.7612C199.981 59.4514 199.726 59.2039 199.4 59.0182C199.076 58.8324 198.657 58.7396 198.147 58.7396C197.28 58.7396 196.572 59.0686 196.022 59.726C195.473 60.3841 195.198 61.2625 195.198 62.3617V68.2122H193.016V59.5754C193.016 59.2816 193.008 58.9021 192.993 58.4377C192.977 57.9733 192.954 57.5634 192.923 57.2071H194.99Z" fill="white"/>
<path d="M212.007 59.9934C211.76 59.5914 211.411 59.2623 210.962 59.0069C210.513 58.7515 210.01 58.6235 209.453 58.6235C209.205 58.6235 208.957 58.6507 208.71 58.7051C208.462 58.7595 208.242 58.8444 208.049 58.9605C207.854 59.0766 207.7 59.2238 207.584 59.4016C207.468 59.5794 207.41 59.7997 207.41 60.063C207.41 60.5274 207.619 60.8724 208.037 61.0966C208.455 61.3208 209.081 61.5258 209.917 61.7116C210.443 61.8356 210.931 61.9829 211.38 62.1527C211.829 62.3232 212.22 62.5355 212.552 62.7909C212.885 63.047 213.145 63.3521 213.33 63.7084C213.516 64.0646 213.609 64.4826 213.609 64.9622C213.609 65.6117 213.485 66.1616 213.238 66.6101C212.99 67.0592 212.66 67.4267 212.25 67.7133C211.84 67.9999 211.372 68.2049 210.846 68.3283C210.32 68.4523 209.778 68.514 209.221 68.514C208.386 68.514 207.568 68.3515 206.771 68.0264C205.974 67.702 205.313 67.2065 204.787 66.5404L206.342 65.2169C206.636 65.6508 207.042 66.0143 207.561 66.3082C208.079 66.6028 208.648 66.7501 209.267 66.7501C209.546 66.7501 209.813 66.7229 210.068 66.6685C210.323 66.6147 210.556 66.5258 210.764 66.4018C210.973 66.2777 211.14 66.1152 211.264 65.9135C211.387 65.7125 211.45 65.4571 211.45 65.148C211.45 64.6371 211.206 64.2577 210.718 64.0102C210.231 63.7628 209.515 63.5306 208.571 63.3137C208.199 63.2208 207.824 63.1087 207.445 62.9767C207.065 62.8453 206.721 62.6635 206.411 62.4314C206.101 62.1992 205.851 61.9086 205.657 61.5603C205.463 61.212 205.366 60.7828 205.366 60.272C205.366 59.6842 205.487 59.1774 205.727 58.7515C205.966 58.3256 206.28 57.9773 206.667 57.7067C207.053 57.436 207.495 57.2343 207.991 57.103C208.485 56.9716 208.997 56.9053 209.523 56.9053C210.312 56.9053 211.074 57.0605 211.809 57.3703C212.544 57.6795 213.114 58.1286 213.516 58.7163L212.007 59.9934Z" fill="white"/>
<path d="M38.7493 53.1777H44.3112C45.0788 53.1777 45.9014 53.1299 46.781 53.0337C47.6594 52.9375 48.4667 52.7146 49.2018 52.3623C49.9375 52.0114 50.5445 51.5079 51.0241 50.8518C51.5037 50.197 51.7432 49.3101 51.7432 48.1909C51.7432 46.4011 51.1601 45.1546 49.9932 44.4507C48.8263 43.7482 47.0119 43.3959 44.5514 43.3959H38.7493V53.1777ZM38.7493 38.2174H44.2634C46.2775 38.2174 47.7874 37.8267 48.7944 37.0426C49.8015 36.2598 50.305 35.2288 50.305 33.9498C50.305 32.4804 49.7849 31.3851 48.7467 30.666C47.7078 29.9462 46.0374 29.5867 43.736 29.5867H38.7493V38.2174ZM32.7078 24.4082H45.9418C47.2195 24.4082 48.4826 24.5601 49.7298 24.864C50.9763 25.1678 52.0862 25.6633 53.062 26.35C54.0366 27.0379 54.828 27.9249 55.4357 29.0115C56.042 30.0981 56.3465 31.409 56.3465 32.9434C56.3465 34.8613 55.8025 36.4435 54.7166 37.69C53.6293 38.9366 52.2063 39.8321 50.4489 40.3755V40.471C51.5037 40.599 52.4869 40.8949 53.3977 41.3586C54.3086 41.8223 55.0834 42.4134 55.7229 43.1325C56.3624 43.8516 56.866 44.6829 57.2335 45.6256C57.6003 46.5689 57.7848 47.5839 57.7848 48.6706C57.7848 50.5247 57.4172 52.0671 56.6822 53.2977C55.9465 54.5283 54.9799 55.5194 53.7812 56.2704C52.5824 57.022 51.2079 57.5574 49.6575 57.8765C48.1072 58.1962 46.5329 58.3561 44.9348 58.3561H32.7078V24.4082Z" fill="#86B91D"/>
<path d="M39.9302 54.1615H45.4921C46.2597 54.1615 47.0823 54.1138 47.9619 54.0176C48.8403 53.9214 49.6476 53.6985 50.3827 53.3462C51.1184 52.9953 51.7254 52.4918 52.205 51.8357C52.6846 51.1816 52.9241 50.294 52.9241 49.1748C52.9241 47.385 52.341 46.1384 51.1741 45.4346C50.0072 44.732 48.1928 44.3798 45.7323 44.3798H39.9302V54.1615ZM39.9302 39.2013H45.4443C47.4584 39.2013 48.9683 38.8106 49.9753 38.0264C50.9824 37.2436 51.4859 36.2127 51.4859 34.9337C51.4859 33.4643 50.9658 32.369 49.9276 31.6499C48.8887 30.9301 47.2183 30.5706 44.917 30.5706H39.9302V39.2013ZM33.8887 25.3921H47.1227C48.4004 25.3921 49.6635 25.544 50.9107 25.8478C52.1572 26.1517 53.2671 26.6472 54.243 27.3338C55.2175 28.0218 56.0089 28.9087 56.6166 29.9954C57.2229 31.082 57.5274 32.3929 57.5274 33.9273C57.5274 35.8452 56.9834 37.4274 55.8975 38.6739C54.8102 39.9204 53.3872 40.816 51.6298 41.3593V41.4549C52.6846 41.5829 53.6678 41.8788 54.5786 42.3425C55.4895 42.8062 56.2643 43.3973 56.9038 44.1164C57.5433 44.8355 58.0469 45.6668 58.4144 46.6095C58.7812 47.5528 58.9657 48.5678 58.9657 49.6544C58.9657 51.5086 58.5981 53.051 57.8631 54.2816C57.1274 55.5122 56.1608 56.5033 54.9621 57.2543C53.7633 58.0059 52.3888 58.5413 50.8384 58.8604C49.2881 59.1808 47.7138 59.34 46.1157 59.34H33.8887V25.3921Z" fill="white"/>
<path d="M42.3842 65.5229C29.6258 65.5229 19.2456 55.1428 19.2456 42.3844C19.2456 33.9639 23.768 26.5803 30.5107 22.5323L29.8792 21.3057C22.6933 25.5852 17.8684 33.4312 17.8684 42.3844C17.8684 55.9024 28.8662 66.9008 42.3842 66.9008C45.9028 66.9008 49.2496 66.1538 52.2774 64.8131L51.6458 63.5865C48.8078 64.8303 45.6759 65.5229 42.3842 65.5229Z" fill="#86B91D"/>
<path d="M30.8801 21.9147C30.8801 22.2955 30.5716 22.604 30.1909 22.604C29.8101 22.604 29.5016 22.2955 29.5016 21.9147C29.5016 21.5339 29.8101 21.2255 30.1909 21.2255C30.5716 21.2255 30.8801 21.5339 30.8801 21.9147Z" fill="#86B91D"/>
<path d="M52.6421 64.2053C52.6421 64.5861 52.3336 64.8945 51.9528 64.8945C51.572 64.8945 51.2636 64.5861 51.2636 64.2053C51.2636 63.8245 51.572 63.516 51.9528 63.516C52.3336 63.516 52.6421 63.8245 52.6421 64.2053Z" fill="#86B91D"/>
<path d="M42.3842 71.1118C26.5436 71.1118 13.6565 58.2247 13.6565 42.3842C13.6565 26.5436 26.5436 13.6565 42.3842 13.6565C43.0529 13.6565 43.7169 13.6804 44.3743 13.7255C44.4639 13.7315 44.4281 13.5988 44.517 13.6061L44.5369 12.3569C43.8257 12.3065 43.1079 12.2793 42.3842 12.2793C25.784 12.2793 12.2793 25.784 12.2793 42.3842C12.2793 58.9843 25.784 72.4897 42.3842 72.4897C44.6822 72.4897 46.9198 72.2296 49.0718 71.7394L48.9206 70.5221C48.843 70.54 48.8105 70.3861 48.7328 70.404C46.6896 70.8664 44.5654 71.1118 42.3842 71.1118Z" fill="white"/>
<path d="M45.1357 13.0397C45.1357 13.4205 44.8273 13.729 44.4465 13.729C44.0657 13.729 43.7572 13.4205 43.7572 13.0397C43.7572 12.6589 44.0657 12.3505 44.4465 12.3505C44.8273 12.3505 45.1357 12.6589 45.1357 13.0397Z" fill="white"/>
<path d="M49.5852 71.0734C49.5852 71.4542 49.2767 71.7627 48.8959 71.7627C48.5151 71.7627 48.2067 71.4542 48.2067 71.0734C48.2067 70.6926 48.5151 70.3842 48.8959 70.3842C49.2767 70.3842 49.5852 70.6926 49.5852 71.0734Z" fill="white"/>
<path d="M1.37721 42.3843C1.37721 19.7732 19.7732 1.37721 42.3843 1.37721C55.0187 1.37721 66.3349 7.12154 73.8631 16.1344C73.9553 16.2452 74.0727 16.161 74.1636 16.2718L74.9444 15.2488C74.1278 14.2723 73.266 13.325 72.3545 12.4141C64.3493 4.40826 53.7058 0 42.3843 0C31.0628 0 20.4193 4.40826 12.4141 12.4141C4.40826 20.4193 0 31.0628 0 42.3843C0 53.7058 4.40826 64.3493 12.4141 72.3545C17.436 77.3771 23.4974 80.9833 30.1122 82.9735L30.6833 81.8709C30.5341 81.8278 30.6203 81.6699 30.4724 81.6248C13.652 76.5087 1.37721 60.8539 1.37721 42.3843Z" fill="white"/>
<path d="M75.0955 15.6874C75.0955 16.0728 74.783 16.3853 74.3976 16.3853C74.0121 16.3853 73.6997 16.0728 73.6997 15.6874C73.6997 15.3019 74.0121 14.9895 74.3976 14.9895C74.783 14.9895 75.0955 15.3019 75.0955 15.6874Z" fill="white"/>
<path d="M31.0002 82.3028C31.0002 82.6875 30.6878 83 30.303 83C29.9176 83 29.6058 82.6875 29.6058 82.3028C29.6058 81.9173 29.9176 81.6055 30.303 81.6055C30.6878 81.6055 31.0002 81.9173 31.0002 82.3028Z" fill="white"/>
<path d="M7.6316 42.3844C7.6316 23.2216 23.2214 7.63178 42.3842 7.63178C48.8722 7.63178 54.9496 9.41963 60.1519 12.5276C60.268 12.5966 60.3708 12.4945 60.4856 12.5654L60.9208 11.3833C55.4975 8.12866 49.1562 6.25391 42.3842 6.25391C22.4618 6.25391 6.25439 22.462 6.25439 42.3844C6.25439 61.5061 21.1861 77.2033 40.002 78.4339L40.1791 77.2717C40.0457 77.2644 40.1572 77.0653 40.0239 77.0561C21.9583 75.8387 7.6316 60.7538 7.6316 42.3844Z" fill="#86B91D"/>
<path d="M61.1941 11.9367C61.1941 12.3181 60.8849 12.6279 60.5028 12.6279C60.1214 12.6279 59.8116 12.3181 59.8116 11.9367C59.8116 11.5552 60.1214 11.2454 60.5028 11.2454C60.8849 11.2454 61.1941 11.5552 61.1941 11.9367Z" fill="#86B91D"/>
<path d="M40.6924 77.7453C40.6924 78.1261 40.3839 78.4346 40.0031 78.4346C39.6223 78.4346 39.3138 78.1261 39.3138 77.7453C39.3138 77.3645 39.6223 77.056 40.0031 77.056C40.3839 77.056 40.6924 77.3645 40.6924 77.7453Z" fill="#86B91D"/>
</svg>
