<svg width="447" height="457" viewBox="0 0 447 457" fill="none" xmlns="http://www.w3.org/2000/svg">
    <path d="M198.653 392.139c60.336 32.09 135.532 9.11 167.623-51.226 21.179-39.821 18.364-86.113-3.341-122.216l6.071-4.212c23.219 38.312 26.302 87.552 3.783 129.892-34.001 63.928-113.674 88.278-177.601 54.278-16.64-8.851-30.589-20.801-41.535-34.757l6.072-4.212c10.292 13.02 23.361 24.173 38.928 32.453z" fill="#fff"/>
    <path d="M362.74 214.847a3.692 3.692 0 1 0 6.52 3.467 3.692 3.692 0 0 0-6.52-3.467zM153.455 360.107a3.692 3.692 0 1 0 6.52 3.467 3.692 3.692 0 0 0-6.52-3.467z" fill="#fff"/>
    <path d="M184.595 418.57c74.911 39.842 168.269 11.312 208.112-63.599 39.842-74.911 11.312-168.269-63.599-208.112a156.168 156.168 0 0 0-9.585-4.679c-.439-.197.064-.734-.374-.923l3.048-5.958a162.853 162.853 0 0 1 10.375 5.048c78.503 41.753 108.401 139.585 66.648 218.088-41.753 78.503-139.587 108.404-218.09 66.651a161.092 161.092 0 0 1-29.74-20.369l3.777-5.377c.322.28.863-.366 1.185-.086a153.902 153.902 0 0 0 28.243 19.316z" fill="#fff"/>
    <path d="M317.646 137.021a3.692 3.692 0 1 0 6.52 3.466 3.692 3.692 0 0 0-6.52-3.466zM150.637 400.276a3.69 3.69 0 0 0 1.526 4.993 3.69 3.69 0 0 0 4.993-1.526 3.69 3.69 0 0 0-1.526-4.993 3.69 3.69 0 0 0-4.993 1.526z" fill="#fff"/>
    <path d="M450.776 385.856c56.872-106.93 16.146-240.196-90.783-297.068C300.244 57.01 232.28 55.713 174.01 79.4c-.715.292-1.059-.401-1.767-.106l-1.12-6.802a230.525 230.525 0 0 1 19.378-6.89c57.994-17.726 119.415-11.803 172.956 16.673 53.54 28.477 92.786 76.094 110.507 134.089 17.725 57.994 11.801 119.416-16.675 172.956-28.476 53.54-76.094 92.786-134.089 110.507-36.381 11.121-74.117 12.929-110.404 5.703l.072-6.65c.814.171.804-.793 1.617-.634 92.413 18.113 189.836-25.046 236.291-112.39z" fill="#fff"/>
    <path d="M169.306 74.186a3.74 3.74 0 1 0 6.604 3.51 3.74 3.74 0 0 0-6.604-3.51zM421.199 370.125c48.198-90.623 13.685-203.56-76.938-251.758-30.682-16.319-63.919-23.15-96.339-21.537-.722.034-.951-.708-1.673-.66l.916-6.686c33.833-1.75 68.537 5.334 100.562 22.367 94.215 50.109 130.094 167.523 79.984 261.738-48.095 90.428-158.19 127.105-250.267 85.598l2.086-5.942c.649.301.622-.92 1.276-.629 88.496 39.682 194.189 4.379 240.393-82.491z" fill="#fff"/>
    <path d="M244.481 91.414a3.703 3.703 0 1 0 6.539 3.477 3.703 3.703 0 0 0-6.539-3.477zM175.911 454.194a3.69 3.69 0 0 0 1.526 4.993 3.69 3.69 0 0 0 4.993-1.526 3.69 3.69 0 0 0-1.526-4.993 3.69 3.69 0 0 0-4.993 1.526z" fill="#fff"/>
</svg>
