<svg width="126" height="140" viewBox="0 0 126 140" fill="none" xmlns="http://www.w3.org/2000/svg">
    <path d="M65.016 89.225h9.332c1.288 0 2.668-.08 4.144-.241 1.474-.162 2.828-.536 4.062-1.127a7.99 7.99 0 0 0 3.057-2.534c.805-1.099 1.207-2.587 1.207-4.465 0-3.003-.979-5.095-2.936-6.276-1.958-1.178-5.003-1.77-9.131-1.77h-9.735v16.413zm0-25.101h9.252c3.38 0 5.912-.656 7.602-1.971 1.69-1.314 2.535-3.044 2.535-5.19 0-2.465-.873-4.303-2.615-5.51-1.743-1.207-4.546-1.81-8.407-1.81h-8.367v14.48zm-10.137-23.17h22.205c2.144 0 4.263.255 6.356.764 2.091.51 3.953 1.342 5.59 2.494 1.636 1.154 2.964 2.642 3.983 4.466 1.018 1.823 1.528 4.022 1.528 6.597 0 3.218-.912 5.873-2.734 7.964-1.825 2.092-4.212 3.594-7.16 4.506v.16c1.769.215 3.419.711 4.947 1.49 1.528.777 2.828 1.77 3.901 2.976a13.742 13.742 0 0 1 2.535 4.183c.615 1.582.925 3.286.925 5.109 0 3.11-.617 5.699-1.85 7.764a14.69 14.69 0 0 1-4.868 4.987c-2.011 1.261-4.317 2.16-6.919 2.695a39.128 39.128 0 0 1-7.924.805H54.88v-56.96z" fill="#fff"/>
    <path d="M66.997 90.876h9.332c1.288 0 2.668-.08 4.144-.242 1.474-.161 2.829-.535 4.062-1.126a7.993 7.993 0 0 0 3.058-2.535c.804-1.097 1.206-2.587 1.206-4.464 0-3.003-.978-5.095-2.936-6.276-1.958-1.179-5.002-1.77-9.13-1.77h-9.736v16.413zm0-25.102h9.252c3.38 0 5.913-.655 7.603-1.97 1.69-1.314 2.534-3.044 2.534-5.19 0-2.465-.873-4.303-2.614-5.51-1.744-1.207-4.546-1.81-8.408-1.81h-8.367v14.48zM56.86 42.605h22.205c2.144 0 4.263.255 6.356.765 2.091.51 3.954 1.342 5.591 2.493 1.635 1.155 2.963 2.643 3.983 4.466 1.017 1.823 1.528 4.023 1.528 6.597 0 3.218-.913 5.873-2.735 7.965-1.824 2.091-4.212 3.594-7.16 4.505v.16c1.77.215 3.419.712 4.947 1.49 1.529.778 2.829 1.77 3.902 2.976a13.746 13.746 0 0 1 2.534 4.183c.616 1.583.925 3.286.925 5.11 0 3.11-.617 5.698-1.85 7.763a14.69 14.69 0 0 1-4.867 4.988c-2.012 1.261-4.318 2.16-6.92 2.695a39.041 39.041 0 0 1-7.923.804H56.86v-56.96z" fill="#fff"/>
    <path d="M71.115 109.939c-21.407 0-38.824-17.417-38.824-38.824 0-14.128 7.588-26.517 18.902-33.309l-1.06-2.058C38.076 42.928 29.98 56.093 29.98 71.115c0 22.681 18.453 41.135 41.135 41.135 5.903 0 11.519-1.253 16.6-3.502l-1.06-2.059a38.616 38.616 0 0 1-15.54 3.25z" fill="#fff"/>
    <path d="M51.813 36.77a1.156 1.156 0 1 1-2.313 0 1.156 1.156 0 0 1 2.313 0zM88.326 107.728a1.156 1.156 0 1 1-2.311 0 1.156 1.156 0 0 1 2.311 0z" fill="#fff"/>
    <path d="M71.114 119.316c-26.578 0-48.2-21.623-48.2-48.2 0-26.58 21.622-48.202 48.2-48.202 1.122 0 2.237.04 3.34.116.15.01.09-.213.239-.2l.033-2.096a51.059 51.059 0 0 0-3.612-.13c-27.852 0-50.512 22.658-50.512 50.511s22.66 50.513 50.512 50.513c3.856 0 7.61-.436 11.221-1.259l-.253-2.042c-.13.03-.185-.228-.315-.198a48.2 48.2 0 0 1-10.653 1.187z" fill="#fff"/>
    <path d="M75.731 21.879a1.156 1.156 0 1 1-2.312 0 1.156 1.156 0 0 1 2.312 0zM83.197 119.252a1.156 1.156 0 1 1-2.313 0 1.156 1.156 0 0 1 2.313 0z" fill="#fff"/>
    <path d="M2.31 71.115c0-37.938 30.867-68.804 68.805-68.804 21.199 0 40.186 9.638 52.817 24.76.155.186.352.045.504.23l1.311-1.716a72.512 72.512 0 0 0-4.346-4.756C107.969 7.396 90.111 0 71.115 0 52.12 0 34.261 7.396 20.83 20.83 7.396 34.26 0 52.12 0 71.114c0 18.996 7.396 36.854 20.83 50.286 8.425 8.427 18.596 14.478 29.694 17.817l.959-1.85c-.25-.072-.106-.337-.354-.413-28.223-8.584-48.818-34.85-48.818-65.84z" fill="#fff"/>
    <path d="M126 26.321a1.17 1.17 0 1 1-2.342 0 1.17 1.17 0 0 1 2.342 0zM52.015 138.093a1.17 1.17 0 1 1-2.341 0 1.17 1.17 0 0 1 2.34 0zM12.805 71.115c0-32.152 26.157-58.31 58.31-58.31 10.886 0 21.083 3 29.812 8.215.195.115.367-.056.56.063l.73-1.984a60.256 60.256 0 0 0-31.102-8.606c-33.427 0-60.62 27.195-60.62 60.622 0 32.084 25.053 58.422 56.623 60.486l.297-1.95c-.224-.012-.037-.346-.26-.362-30.312-2.042-54.35-27.353-54.35-58.174z" fill="#fff"/>
    <path d="M102.676 20.028a1.16 1.16 0 1 1-2.32 0 1.16 1.16 0 0 1 2.32 0zM68.276 130.446a1.157 1.157 0 1 1-2.313 0 1.157 1.157 0 0 1 2.313 0z" fill="#fff"/>
</svg>
