<svg width="280" height="75" viewBox="0 0 280 75" fill="none" xmlns="http://www.w3.org/2000/svg">
<path d="M68.3945 33.6527C68.5045 34.1722 68.7444 34.6026 69.1149 34.9441C69.4854 35.2855 69.9453 35.4565 70.4941 35.4565C70.9328 35.4565 71.2933 35.3745 71.5744 35.2105C71.8556 35.0466 72.079 34.8246 72.2437 34.5447C72.4084 34.2641 72.5248 33.9367 72.5936 33.5607C72.6619 33.1847 72.696 32.7853 72.696 32.3613V22.3793H74.7338V32.4433C74.7338 32.9493 74.6791 33.4823 74.5691 34.0422C74.4597 34.6026 74.2533 35.1221 73.9516 35.6C73.6499 36.0785 73.2282 36.4744 72.686 36.7889C72.1437 37.1028 71.4474 37.2604 70.597 37.2604C69.4854 37.2604 68.5797 36.9734 67.8799 36.3994C67.18 35.8255 66.7201 35.0876 66.5007 34.1856L68.3945 33.6527Z" fill="#1A171B"/>
<path d="M80.0239 35.6615C80.0239 36.017 79.8933 36.3309 79.6328 36.6044C79.3717 36.8779 79.0429 37.0144 78.6448 37.0144C78.2607 37.0144 77.9349 36.8809 77.6673 36.615C77.3997 36.3485 77.2656 36.0375 77.2656 35.682C77.2656 35.313 77.3962 34.995 77.6573 34.7286C77.9173 34.4627 78.2466 34.3291 78.6448 34.3291C79.0429 34.3291 79.3717 34.4591 79.6328 34.7186C79.8933 34.978 80.0239 35.2925 80.0239 35.6615Z" fill="#1A171B"/>
<path d="M84.7164 28.7952H86.8778C87.3718 28.7952 87.8276 28.7513 88.2469 28.6617C88.6651 28.5732 89.025 28.4368 89.3273 28.2523C89.629 28.0678 89.8625 27.8253 90.0272 27.5243C90.1912 27.2245 90.2742 26.8549 90.2742 26.418C90.2742 25.9805 90.1883 25.6151 90.0166 25.321C89.8448 25.027 89.6119 24.7881 89.3167 24.6036C89.0215 24.4191 88.6686 24.2897 88.2569 24.2141C87.8452 24.1392 87.3994 24.1017 86.9189 24.1017H84.7164V28.7952ZM82.6792 22.3799H87.1248C87.907 22.3799 88.6204 22.4589 89.2655 22.6159C89.9101 22.7728 90.4588 23.0153 90.9123 23.3433C91.3645 23.6712 91.7145 24.0882 91.9615 24.5937C92.2085 25.0991 92.332 25.7076 92.332 26.418C92.332 27.1419 92.1985 27.7638 91.9309 28.2827C91.6633 28.8022 91.2928 29.2257 90.8194 29.5536C90.3459 29.8816 89.7831 30.1247 89.1315 30.2816C88.4798 30.4386 87.7764 30.517 87.0219 30.517H84.7164V36.8914H82.6792V22.3799Z" fill="#1A171B"/>
<path d="M93.8347 35.6615C93.8347 36.017 93.7041 36.3309 93.4436 36.6044C93.1825 36.8779 92.8537 37.0144 92.4556 37.0144C92.0715 37.0144 91.7457 36.8809 91.4781 36.615C91.2105 36.3485 91.0764 36.0375 91.0764 35.682C91.0764 35.313 91.207 34.995 91.4681 34.7286C91.7281 34.4627 92.0574 34.3291 92.4556 34.3291C92.8537 34.3291 93.1825 34.4591 93.4436 34.7186C93.7041 34.978 93.8347 35.2925 93.8347 35.6615Z" fill="#1A171B"/>
<path d="M102.644 35.1696H105.196C105.621 35.1696 106.05 35.1321 106.483 35.0565C106.915 34.9821 107.306 34.8486 107.656 34.6571C108.006 34.4662 108.287 34.2097 108.5 33.8887C108.712 33.5678 108.819 33.1607 108.819 32.6688C108.819 31.8079 108.523 31.1865 107.934 30.804C107.343 30.4216 106.493 30.2301 105.381 30.2301H102.644V35.1696ZM102.644 28.5082H105.299C105.683 28.5082 106.05 28.4637 106.4 28.3753C106.75 28.2863 107.055 28.1498 107.316 27.9647C107.577 27.7808 107.783 27.5483 107.934 27.2684C108.084 26.9878 108.16 26.6499 108.16 26.2534C108.16 25.4745 107.872 24.9181 107.296 24.5831C106.719 24.2481 105.944 24.0806 104.97 24.0806H102.644V28.5082ZM100.606 22.3793H105.628C106.177 22.3793 106.726 22.4414 107.275 22.5643C107.824 22.6867 108.314 22.8917 108.747 23.1787C109.179 23.4657 109.529 23.8423 109.796 24.3061C110.064 24.7711 110.197 25.3515 110.197 26.0484C110.197 26.8549 109.964 27.5313 109.498 28.0778C109.031 28.6248 108.414 29.0002 107.646 29.2052V29.2462C108.112 29.3006 108.544 29.4201 108.942 29.6046C109.34 29.7891 109.683 30.0321 109.971 30.332C110.259 30.633 110.482 30.9885 110.64 31.3985C110.798 31.8079 110.877 32.2658 110.877 32.7713C110.877 33.4682 110.733 34.0767 110.444 34.5956C110.156 35.1151 109.766 35.542 109.271 35.8764C108.778 36.212 108.197 36.4645 107.532 36.6355C106.866 36.8065 106.157 36.8914 105.402 36.8914H100.606V22.3793Z" fill="#1A171B"/>
<path d="M118.904 32.2594C118.424 32.2594 117.926 32.2799 117.412 32.3209C116.898 32.3619 116.431 32.4439 116.013 32.5669C115.594 32.6899 115.248 32.8744 114.973 33.1203C114.699 33.3663 114.562 33.6937 114.562 34.1043C114.562 34.3912 114.62 34.6302 114.736 34.8217C114.853 35.0126 115.008 35.1696 115.199 35.2931C115.392 35.4156 115.604 35.5016 115.837 35.5491C116.071 35.5971 116.311 35.6211 116.558 35.6211C117.464 35.6211 118.16 35.3511 118.647 34.8111C119.134 34.2718 119.378 33.5918 119.378 32.7719V32.2594H118.904ZM119.378 30.5991C119.378 29.8752 119.158 29.3387 118.719 28.9903C118.28 28.6418 117.696 28.4673 116.97 28.4673C116.421 28.4673 115.903 28.5733 115.416 28.7853C114.929 28.9973 114.52 29.2667 114.191 29.5947L113.162 28.3648C113.642 27.9138 114.228 27.5589 114.922 27.2989C115.615 27.0394 116.359 26.9094 117.155 26.9094C117.855 26.9094 118.462 27.009 118.977 27.2069C119.491 27.4049 119.913 27.6749 120.242 28.0163C120.572 28.3583 120.819 28.7613 120.983 29.2257C121.148 29.6907 121.23 30.1891 121.23 30.7221V34.9652C121.23 35.2931 121.24 35.6381 121.261 36C121.282 36.362 121.319 36.6595 121.375 36.8914H119.625C119.515 36.427 119.46 35.9626 119.46 35.4975H119.398C119.041 36.0176 118.592 36.42 118.05 36.7069C117.508 36.9939 116.867 37.1374 116.126 37.1374C115.742 37.1374 115.34 37.0864 114.922 36.984C114.503 36.8815 114.122 36.714 113.779 36.482C113.436 36.2495 113.151 35.9421 112.925 35.5596C112.699 35.1772 112.586 34.7057 112.586 34.1453C112.586 33.4073 112.784 32.8228 113.183 32.3929C113.58 31.9619 114.102 31.6339 114.746 31.4085C115.392 31.1836 116.119 31.0366 116.928 30.968C117.738 30.9001 118.555 30.8655 119.378 30.8655V30.5991Z" fill="#1A171B"/>
<path d="M124.029 28.2623C124.016 27.8523 123.995 27.4904 123.968 27.1759H125.8C125.827 27.4218 125.848 27.7059 125.861 28.0263C125.875 28.3478 125.882 28.6107 125.882 28.8157H125.944C126.218 28.2418 126.619 27.7809 127.147 27.4318C127.676 27.0833 128.27 26.9094 128.928 26.9094C129.23 26.9094 129.483 26.9369 129.69 26.9914L129.608 28.7747C129.332 28.7062 129.038 28.6722 128.722 28.6722C128.256 28.6722 127.851 28.7577 127.508 28.9282C127.165 29.0992 126.88 29.3282 126.653 29.6152C126.428 29.9021 126.259 30.233 126.149 30.609C126.039 30.985 125.985 31.378 125.985 31.7874V36.8914H124.05V29.2667C124.05 29.0072 124.043 28.6722 124.029 28.2623Z" fill="#1A171B"/>
<path d="M131.069 28.2623C131.055 27.8523 131.034 27.4904 131.007 27.1759H132.839C132.866 27.4218 132.887 27.7059 132.901 28.0263C132.914 28.3478 132.921 28.6107 132.921 28.8157H132.983C133.258 28.2418 133.659 27.7809 134.187 27.4318C134.715 27.0833 135.309 26.9094 135.967 26.9094C136.269 26.9094 136.523 26.9369 136.729 26.9914L136.647 28.7747C136.372 28.7062 136.077 28.6722 135.762 28.6722C135.295 28.6722 134.89 28.7577 134.547 28.9282C134.204 29.0992 133.919 29.3282 133.693 29.6152C133.467 29.9021 133.298 30.233 133.189 30.609C133.079 30.985 133.024 31.378 133.024 31.7874V36.8914H131.089V29.2667C131.089 29.0072 131.082 28.6722 131.069 28.2623Z" fill="#1A171B"/>
<path d="M143.46 32.2594C142.98 32.2594 142.482 32.2799 141.968 32.3209C141.453 32.3619 140.987 32.4439 140.568 32.5669C140.149 32.6899 139.803 32.8744 139.528 33.1203C139.254 33.3663 139.117 33.6937 139.117 34.1043C139.117 34.3912 139.175 34.6302 139.292 34.8217C139.409 35.0126 139.562 35.1696 139.754 35.2931C139.947 35.4156 140.16 35.5016 140.393 35.5491C140.626 35.5971 140.866 35.6211 141.114 35.6211C142.019 35.6211 142.716 35.3511 143.203 34.8111C143.69 34.2718 143.934 33.5918 143.934 32.7719V32.2594H143.46ZM143.934 30.5991C143.934 29.8752 143.713 29.3387 143.275 28.9903C142.835 28.6418 142.252 28.4673 141.525 28.4673C140.976 28.4673 140.458 28.5733 139.971 28.7853C139.484 28.9973 139.075 29.2667 138.746 29.5947L137.717 28.3648C138.197 27.9138 138.784 27.5589 139.477 27.2989C140.17 27.0394 140.914 26.9094 141.711 26.9094C142.41 26.9094 143.017 27.009 143.532 27.2069C144.047 27.4049 144.469 27.6749 144.798 28.0163C145.128 28.3583 145.374 28.7613 145.539 29.2257C145.703 29.6907 145.786 30.1891 145.786 30.7221V34.9652C145.786 35.2931 145.796 35.6381 145.816 36C145.837 36.362 145.874 36.6595 145.93 36.8914H144.18C144.07 36.427 144.015 35.9626 144.015 35.4975H143.954C143.597 36.0176 143.148 36.42 142.606 36.7069C142.063 36.9939 141.422 37.1374 140.681 37.1374C140.297 37.1374 139.895 37.0864 139.477 36.984C139.058 36.8815 138.678 36.714 138.335 36.482C137.991 36.2495 137.707 35.9421 137.481 35.5596C137.254 35.1772 137.141 34.7057 137.141 34.1453C137.141 33.4073 137.34 32.8228 137.738 32.3929C138.136 31.9619 138.657 31.6339 139.302 31.4085C139.947 31.1836 140.674 31.0366 141.484 30.968C142.293 30.9001 143.11 30.8655 143.934 30.8655V30.5991Z" fill="#1A171B"/>
<path d="M153.874 29.6357C153.655 29.2807 153.346 28.9903 152.948 28.7648C152.55 28.5393 152.104 28.4263 151.61 28.4263C151.39 28.4263 151.17 28.4503 150.951 28.4983C150.732 28.5463 150.536 28.6213 150.365 28.7238C150.192 28.8263 150.056 28.9563 149.953 29.1132C149.85 29.2702 149.798 29.4646 149.798 29.6971C149.798 30.1071 149.984 30.4117 150.355 30.6096C150.725 30.8076 151.281 30.9885 152.021 31.1525C152.488 31.262 152.92 31.3921 153.318 31.542C153.716 31.6925 154.063 31.8799 154.357 32.1054C154.653 32.3309 154.883 32.6009 155.047 32.9154C155.212 33.2299 155.294 33.5988 155.294 34.0223C155.294 34.5956 155.184 35.0811 154.965 35.477C154.745 35.8735 154.453 36.198 154.09 36.451C153.726 36.704 153.311 36.885 152.845 36.9939C152.378 37.1034 151.898 37.1579 151.404 37.1579C150.663 37.1579 149.939 37.0144 149.233 36.7274C148.526 36.441 147.939 36.0036 147.473 35.4156L148.852 34.2472C149.112 34.6302 149.473 34.9511 149.932 35.2106C150.392 35.4706 150.896 35.6006 151.445 35.6006C151.692 35.6006 151.928 35.5766 152.155 35.5286C152.381 35.4811 152.587 35.4027 152.772 35.2931C152.958 35.1836 153.105 35.0401 153.215 34.8621C153.325 34.6846 153.38 34.4592 153.38 34.1862C153.38 33.7353 153.164 33.4003 152.731 33.1818C152.3 32.9634 151.665 32.7584 150.828 32.5669C150.498 32.4849 150.165 32.3859 149.829 32.2694C149.493 32.1534 149.188 31.9929 148.913 31.788C148.639 31.583 148.416 31.3265 148.245 31.019C148.073 30.7115 147.987 30.3326 147.987 29.8816C147.987 29.3627 148.093 28.9153 148.306 28.5393C148.519 28.1633 148.797 27.8558 149.14 27.6169C149.483 27.3779 149.874 27.1999 150.314 27.0839C150.752 26.968 151.205 26.9094 151.671 26.9094C152.371 26.9094 153.047 27.0464 153.699 27.3199C154.35 27.5929 154.855 27.9894 155.212 28.5083L153.874 29.6357Z" fill="#1A171B"/>
<path d="M164.207 35.0876H171.822V36.8914H162.169V22.3793H171.514V24.1626H164.207V28.5083H171.081V30.25H164.207V35.0876Z" fill="#1A171B"/>
<path d="M174.065 21.3959H176V36.8914H174.065V21.3959Z" fill="#1A171B"/>
<path d="M186.106 31.173C186.093 30.7906 186.028 30.4322 185.911 30.0972C185.795 29.7622 185.623 29.4717 185.397 29.2257C185.17 28.9797 184.888 28.7853 184.553 28.6418C184.216 28.4983 183.822 28.4263 183.369 28.4263C182.958 28.4263 182.57 28.4983 182.206 28.6418C181.843 28.7853 181.527 28.9797 181.26 29.2257C180.992 29.4717 180.772 29.7622 180.601 30.0972C180.429 30.4322 180.329 30.7906 180.302 31.173H186.106ZM188.082 31.9519V32.2799C188.082 32.3894 188.075 32.4984 188.062 32.6079H180.302C180.316 33.0155 180.409 33.3985 180.58 33.7581C180.752 34.1177 180.982 34.4299 181.27 34.6946C181.557 34.9587 181.89 35.1661 182.268 35.3148C182.645 35.4642 183.047 35.5391 183.472 35.5391C184.13 35.5391 184.7 35.3956 185.18 35.1087C185.661 34.8217 186.038 34.4732 186.313 34.0633L187.671 35.1497C187.149 35.8378 186.535 36.345 185.829 36.6706C185.122 36.9957 184.337 37.1585 183.472 37.1585C182.731 37.1585 182.045 37.0349 181.414 36.7895C180.783 36.5435 180.24 36.1986 179.788 35.7541C179.335 35.3101 178.978 34.7737 178.717 34.1453C178.457 33.5168 178.326 32.8199 178.326 32.0544C178.326 31.303 178.454 30.6096 178.708 29.9742C178.962 29.3387 179.316 28.7952 179.77 28.3443C180.224 27.8933 180.76 27.5419 181.379 27.2889C181.998 27.0365 182.664 26.9094 183.379 26.9094C184.095 26.9094 184.744 27.0259 185.329 27.2579C185.913 27.491 186.408 27.8254 186.814 28.2629C187.22 28.7003 187.533 29.2292 187.753 29.8512C187.972 30.4731 188.082 31.173 188.082 31.9519Z" fill="#1A171B"/>
<path d="M197.18 29.6357C196.974 29.3217 196.666 29.0588 196.254 28.8468C195.843 28.6348 195.403 28.5287 194.937 28.5287C194.43 28.5287 193.98 28.6248 193.589 28.8157C193.197 29.0072 192.865 29.2638 192.591 29.5841C192.316 29.9056 192.107 30.2781 191.962 30.7016C191.818 31.1256 191.747 31.5695 191.747 32.0339C191.747 32.4984 191.818 32.9429 191.962 33.3657C192.107 33.7898 192.316 34.1622 192.591 34.4832C192.865 34.8041 193.201 35.0606 193.599 35.2522C193.997 35.4437 194.45 35.5391 194.958 35.5391C195.452 35.5391 195.901 35.4437 196.306 35.2522C196.71 35.0606 197.043 34.8006 197.304 34.4732L198.601 35.641C198.189 36.1195 197.674 36.492 197.057 36.7585C196.439 37.025 195.74 37.1579 194.958 37.1579C194.203 37.1579 193.506 37.0349 192.869 36.7889C192.23 36.543 191.678 36.198 191.211 35.7541C190.745 35.3101 190.378 34.7737 190.11 34.1453C189.843 33.5162 189.709 32.8129 189.709 32.0339C189.709 31.2685 189.839 30.5715 190.1 29.9431C190.361 29.3147 190.724 28.7747 191.191 28.3238C191.657 27.8728 192.21 27.5243 192.848 27.2784C193.486 27.033 194.175 26.9094 194.917 26.9094C195.602 26.9094 196.285 27.0464 196.964 27.3199C197.643 27.5929 198.182 27.9894 198.58 28.5083L197.18 29.6357Z" fill="#1A171B"/>
<path d="M204.878 28.7542H202.284V33.8014C202.284 34.3877 202.394 34.8064 202.614 35.0583C202.833 35.3107 203.183 35.436 203.664 35.436C203.842 35.436 204.034 35.4179 204.24 35.3798C204.446 35.3423 204.631 35.2861 204.796 35.2105L204.857 36.7889C204.624 36.8709 204.367 36.9359 204.085 36.9839C203.804 37.0314 203.513 37.0554 203.211 37.0554C202.291 37.0554 201.588 36.803 201.101 36.2969C200.614 35.7915 200.37 35.0331 200.37 34.0222V28.7542H198.498V27.1758H200.37V24.3887H202.284V27.1758H204.878V28.7542Z" fill="#1A171B"/>
<path d="M206.442 28.2623C206.428 27.8523 206.408 27.4904 206.381 27.1759H208.213C208.24 27.4218 208.26 27.7059 208.274 28.0263C208.287 28.3478 208.295 28.6107 208.295 28.8157H208.356C208.631 28.2418 209.032 27.7809 209.561 27.4318C210.089 27.0833 210.683 26.9094 211.341 26.9094C211.643 26.9094 211.897 26.9369 212.102 26.9914L212.02 28.7747C211.745 28.7062 211.451 28.6722 211.135 28.6722C210.669 28.6722 210.264 28.7577 209.92 28.9282C209.577 29.0992 209.293 29.3282 209.067 29.6152C208.84 29.9021 208.672 30.233 208.563 30.609C208.453 30.985 208.397 31.378 208.397 31.7874V36.8914H206.463V29.2667C206.463 29.0072 206.456 28.6722 206.442 28.2623Z" fill="#1A171B"/>
<path d="M215.457 36.8914H213.522V27.1759H215.457V36.8914ZM215.766 23.6713C215.766 24.0262 215.64 24.3202 215.388 24.5521C215.136 24.7852 214.833 24.9011 214.48 24.9011C214.126 24.9011 213.826 24.7811 213.581 24.5421C213.336 24.3032 213.214 24.0127 213.214 23.6713C213.214 23.3158 213.336 23.0188 213.581 22.7793C213.826 22.5403 214.126 22.4203 214.48 22.4203C214.833 22.4203 215.136 22.5403 215.388 22.7793C215.64 23.0188 215.766 23.3158 215.766 23.6713Z" fill="#1A171B"/>
<path d="M225.254 29.6357C225.048 29.3217 224.739 29.0588 224.328 28.8468C223.917 28.6348 223.477 28.5287 223.01 28.5287C222.503 28.5287 222.053 28.6248 221.662 28.8157C221.271 29.0072 220.938 29.2638 220.664 29.5841C220.39 29.9056 220.181 30.2781 220.036 30.7016C219.892 31.1256 219.82 31.5695 219.82 32.0339C219.82 32.4984 219.892 32.9429 220.036 33.3657C220.181 33.7898 220.39 34.1622 220.664 34.4832C220.938 34.8041 221.275 35.0606 221.673 35.2522C222.07 35.4437 222.523 35.5391 223.031 35.5391C223.525 35.5391 223.975 35.4437 224.379 35.2522C224.784 35.0606 225.117 34.8006 225.378 34.4732L226.674 35.641C226.263 36.1195 225.748 36.492 225.13 36.7585C224.513 37.025 223.813 37.1579 223.031 37.1579C222.276 37.1579 221.58 37.0349 220.942 36.7889C220.304 36.543 219.751 36.198 219.285 35.7541C218.819 35.3101 218.452 34.7737 218.184 34.1453C217.916 33.5162 217.782 32.8129 217.782 32.0339C217.782 31.2685 217.913 30.5715 218.174 29.9431C218.435 29.3147 218.798 28.7747 219.265 28.3238C219.731 27.8728 220.284 27.5243 220.921 27.2784C221.56 27.033 222.249 26.9094 222.99 26.9094C223.676 26.9094 224.359 27.0464 225.038 27.3199C225.717 27.5929 226.255 27.9894 226.654 28.5083L225.254 29.6357Z" fill="#1A171B"/>
<path d="M230.132 36.8914H228.198V27.1759H230.132V36.8914ZM230.441 23.6713C230.441 24.0262 230.315 24.3202 230.063 24.5521C229.811 24.7852 229.508 24.9011 229.155 24.9011C228.801 24.9011 228.502 24.7811 228.256 24.5421C228.012 24.3032 227.889 24.0127 227.889 23.6713C227.889 23.3158 228.012 23.0188 228.256 22.7793C228.502 22.5403 228.801 22.4203 229.155 22.4203C229.508 22.4203 229.811 22.5403 230.063 22.7793C230.315 23.0188 230.441 23.3158 230.441 23.6713Z" fill="#1A171B"/>
<path d="M237.871 28.7542H235.278V33.8014C235.278 34.3877 235.388 34.8064 235.607 35.0583C235.827 35.3107 236.177 35.436 236.658 35.436C236.835 35.436 237.028 35.4179 237.233 35.3798C237.439 35.3423 237.624 35.2861 237.789 35.2105L237.851 36.7889C237.617 36.8709 237.36 36.9359 237.079 36.9839C236.798 37.0314 236.506 37.0554 236.204 37.0554C235.284 37.0554 234.582 36.803 234.095 36.2969C233.608 35.7915 233.364 35.0331 233.364 34.0222V28.7542H231.491V27.1758H233.364V24.3887H235.278V27.1758H237.871V28.7542Z" fill="#1A171B"/>
<path d="M244.424 25.331H242.839L244.897 22.3793H247.221L244.424 25.331ZM246.598 31.1724C246.585 30.79 246.519 30.4316 246.402 30.0966C246.286 29.7622 246.115 29.4717 245.888 29.2257C245.661 28.9797 245.38 28.7847 245.044 28.6412C244.707 28.4977 244.313 28.4263 243.86 28.4263C243.449 28.4263 243.061 28.4977 242.698 28.6412C242.334 28.7847 242.018 28.9797 241.751 29.2257C241.483 29.4717 241.264 29.7622 241.092 30.0966C240.92 30.4316 240.821 30.79 240.794 31.1724H246.598ZM248.574 31.9514V32.2793C248.574 32.3889 248.567 32.4984 248.554 32.6073H240.794C240.807 33.0149 240.9 33.398 241.072 33.7575C241.243 34.1171 241.473 34.4293 241.761 34.694C242.049 34.9587 242.382 35.1655 242.759 35.3148C243.136 35.4642 243.538 35.5385 243.963 35.5385C244.622 35.5385 245.191 35.3951 245.672 35.1081C246.152 34.8211 246.529 34.4726 246.804 34.0627L248.162 35.1491C247.64 35.8378 247.027 36.3444 246.32 36.67C245.614 36.9951 244.828 37.1579 243.963 37.1579C243.222 37.1579 242.536 37.0349 241.905 36.7889C241.274 36.543 240.732 36.198 240.279 35.7535C239.826 35.3101 239.47 34.7737 239.209 34.1447C238.948 33.5163 238.818 32.8193 238.818 32.0539C238.818 31.3025 238.945 30.609 239.2 29.9736C239.454 29.3381 239.808 28.7946 240.261 28.3443C240.715 27.8933 241.252 27.5413 241.871 27.2883C242.489 27.0359 243.156 26.9094 243.871 26.9094C244.586 26.9094 245.236 27.0254 245.821 27.2579C246.405 27.4904 246.9 27.8248 247.306 28.2623C247.711 28.6998 248.024 29.2292 248.244 29.8506C248.464 30.4726 248.574 31.1724 248.574 31.9514Z" fill="#1A171B"/>
<path d="M262.921 25.0645C262.632 24.6686 262.241 24.3442 261.747 24.0906C261.253 23.8382 260.698 23.7117 260.08 23.7117C259.751 23.7117 259.418 23.7562 259.081 23.8452C258.745 23.9342 258.44 24.0777 258.166 24.2757C257.891 24.4736 257.668 24.7196 257.497 25.013C257.325 25.3076 257.239 25.659 257.239 26.069C257.239 26.4654 257.318 26.7963 257.476 27.0628C257.634 27.3293 257.847 27.5548 258.115 27.7393C258.382 27.9237 258.697 28.0813 259.061 28.2107C259.425 28.3407 259.812 28.4743 260.224 28.6107C260.718 28.7612 261.219 28.9317 261.727 29.1226C262.234 29.3147 262.694 29.5671 263.106 29.8816C263.517 30.1955 263.853 30.5885 264.115 31.06C264.374 31.5314 264.506 32.1294 264.506 32.8533C264.506 33.6053 264.364 34.2577 264.083 34.8111C263.802 35.364 263.428 35.822 262.962 36.1839C262.495 36.5465 261.957 36.8164 261.346 36.9939C260.735 37.1714 260.107 37.2604 259.463 37.2604C258.543 37.2604 257.655 37.0823 256.797 36.7274C255.939 36.3719 255.229 35.846 254.667 35.1491L256.252 33.8167C256.595 34.3221 257.055 34.7327 257.631 35.0466C258.207 35.3611 258.831 35.518 259.504 35.518C259.847 35.518 260.189 35.47 260.533 35.3745C260.876 35.2791 261.188 35.1286 261.469 34.9236C261.75 34.7186 261.98 34.4627 262.159 34.1552C262.337 33.8471 262.427 33.4752 262.427 33.0378C262.427 32.6008 262.334 32.2354 262.149 31.9414C261.963 31.6474 261.713 31.3979 261.397 31.1929C261.082 30.9885 260.715 30.814 260.296 30.6705C259.878 30.527 259.435 30.38 258.968 30.2295C258.502 30.093 258.042 29.9255 257.59 29.7276C257.137 29.5296 256.732 29.2766 256.375 28.9692C256.018 28.6617 255.73 28.2828 255.511 27.8318C255.291 27.3808 255.182 26.8209 255.182 26.1509C255.182 25.4265 255.329 24.8051 255.624 24.2856C255.919 23.7667 256.303 23.3363 256.777 22.9942C257.25 22.6534 257.785 22.4039 258.382 22.2463C258.979 22.0894 259.579 22.0103 260.183 22.0103C261.033 22.0103 261.829 22.1608 262.571 22.4619C263.312 22.7623 263.908 23.1652 264.361 23.6707L262.921 25.0645Z" fill="#1A171B"/>
<path d="M269.753 31.5414H275.208L272.491 24.7366L269.753 31.5414ZM267.572 36.8914H265.308L271.627 22.3793H273.479L279.736 36.8914H277.431L275.949 33.3247H269.033L267.572 36.8914Z" fill="#1A171B"/>
<path d="M74.1087 49.3701C73.8206 48.9742 73.4295 48.6498 72.9354 48.3962C72.4414 48.1437 71.8856 48.0172 71.2681 48.0172C70.9388 48.0172 70.6059 48.0617 70.2695 48.1508C69.9337 48.2398 69.6284 48.3833 69.3538 48.5812C69.0791 48.7792 68.8563 49.0252 68.6851 49.3186C68.5134 49.6132 68.4275 49.9646 68.4275 50.3745C68.4275 50.771 68.5063 51.1019 68.6645 51.3684C68.8221 51.6349 69.035 51.8604 69.3026 52.0448C69.5702 52.2293 69.8855 52.3869 70.2495 52.5163C70.613 52.6463 71.0005 52.7798 71.4122 52.9163C71.9062 53.0668 72.4067 53.2372 72.9149 53.4282C73.4224 53.6203 73.8823 53.8727 74.294 54.1872C74.7051 54.5011 75.0415 54.8941 75.302 55.3655C75.5632 55.837 75.6937 56.435 75.6937 57.1588C75.6937 57.9108 75.5526 58.5633 75.2714 59.1167C74.9903 59.6696 74.6163 60.1276 74.1499 60.4895C73.6829 60.852 73.1442 61.122 72.5343 61.2995C71.9233 61.4769 71.2958 61.5659 70.6506 61.5659C69.7314 61.5659 68.8427 61.3879 67.9852 61.033C67.1272 60.6775 66.4173 60.1516 65.8545 59.4546L67.4401 58.1223C67.7823 58.6277 68.2423 59.0382 68.8186 59.3521C69.395 59.6666 70.0195 59.8236 70.6918 59.8236C71.0346 59.8236 71.3781 59.7756 71.721 59.6801C72.0638 59.5847 72.3761 59.4341 72.6573 59.2292C72.9384 59.0242 73.1689 58.7682 73.3471 58.4608C73.5253 58.1527 73.6147 57.7808 73.6147 57.3433C73.6147 56.9064 73.5218 56.541 73.3365 56.247C73.1513 55.953 72.9007 55.7035 72.5855 55.4985C72.2697 55.2941 71.9027 55.1196 71.484 54.9761C71.0658 54.8326 70.623 54.6862 70.1566 54.5351C69.6902 54.3992 69.2309 54.2311 68.7774 54.0332C68.3252 53.8352 67.92 53.5822 67.563 53.2747C67.206 52.9673 66.9184 52.5883 66.6984 52.1374C66.4791 51.6864 66.3697 51.1265 66.3697 50.4565C66.3697 49.7326 66.5167 49.1107 66.8119 48.5912C67.1066 48.0723 67.4912 47.6418 67.9647 47.2998C68.4381 46.9589 68.9733 46.7095 69.5702 46.5519C70.1672 46.395 70.767 46.3159 71.371 46.3159C72.2221 46.3159 73.0178 46.4664 73.7588 46.7674C74.4998 47.0679 75.0968 47.4708 75.5496 47.9762L74.1087 49.3701Z" fill="#1A171B"/>
<path d="M80.0774 52.9573C80.3103 52.4794 80.7084 52.0694 81.2713 51.7274C81.8335 51.386 82.4652 51.215 83.165 51.215C83.7961 51.215 84.3383 51.321 84.7906 51.533C85.2434 51.745 85.621 52.0284 85.9227 52.3834C86.2244 52.7389 86.4479 53.1553 86.592 53.6337C86.7361 54.1122 86.8078 54.6247 86.8078 55.1711V61.197H84.8735V55.8136C84.8735 55.4165 84.8423 55.0393 84.7806 54.6833C84.7188 54.3272 84.6059 54.0127 84.4406 53.7386C84.2766 53.4645 84.0531 53.2455 83.772 53.0809C83.4908 52.9169 83.1238 52.8343 82.671 52.8343C81.9023 52.8343 81.2713 53.1254 80.7773 53.7075C80.2832 54.2903 80.0362 55.0674 80.0362 56.0396V61.197H78.1013V45.7015H80.0362V52.9573H80.0774Z" fill="#1A171B"/>
<path d="M97.5317 56.329C97.5317 55.8657 97.4593 55.4229 97.3152 55.0007C97.1706 54.5784 96.9606 54.2077 96.6854 53.8873C96.4101 53.567 96.069 53.3116 95.6632 53.1207C95.2568 52.9298 94.7922 52.8343 94.2694 52.8343C93.746 52.8343 93.2813 52.9298 92.8755 53.1207C92.4691 53.3116 92.1286 53.567 91.8534 53.8873C91.5781 54.2077 91.3682 54.5784 91.2235 55.0007C91.0788 55.4229 91.0071 55.8657 91.0071 56.329C91.0071 56.7928 91.0788 57.2356 91.2235 57.6573C91.3682 58.0801 91.5781 58.4549 91.8534 58.7817C92.1286 59.1085 92.4691 59.3674 92.8755 59.5583C93.2813 59.7492 93.746 59.8447 94.2694 59.8447C94.7922 59.8447 95.2568 59.7492 95.6632 59.5583C96.069 59.3674 96.4101 59.1085 96.6854 58.7817C96.9606 58.4549 97.1706 58.0801 97.3152 57.6573C97.4593 57.2356 97.5317 56.7928 97.5317 56.329ZM99.5489 56.319C99.5489 57.0704 99.4148 57.7609 99.1472 58.3893C98.8796 59.0177 98.5097 59.5607 98.0357 60.0186C97.5628 60.4766 97.0035 60.8315 96.3584 61.0845C95.7132 61.337 95.0204 61.4635 94.28 61.4635C93.5383 61.4635 92.8455 61.337 92.201 61.0845C91.5558 60.8315 91 60.4766 90.5336 60.0186C90.0667 59.5607 89.6997 59.0177 89.4321 58.3893C89.1645 57.7609 89.031 57.0704 89.031 56.319C89.031 55.5676 89.1645 54.8806 89.4321 54.2592C89.6997 53.6373 90.0667 53.1008 90.5336 52.6498C91 52.1989 91.5558 51.8475 92.201 51.5945C92.8455 51.3415 93.5383 51.215 94.28 51.215C95.0204 51.215 95.7132 51.3415 96.3584 51.5945C97.0035 51.8475 97.5628 52.1989 98.0357 52.6498C98.5097 53.1008 98.8796 53.6373 99.1472 54.2592C99.4148 54.8806 99.5489 55.5676 99.5489 56.319Z" fill="#1A171B"/>
<path d="M110.169 56.319C110.169 55.8681 110.1 55.4311 109.963 55.0071C109.826 54.5837 109.62 54.2077 109.346 53.8797C109.071 53.5518 108.731 53.2923 108.327 53.1008C107.922 52.9099 107.452 52.8138 106.917 52.8138C106.423 52.8138 105.973 52.9099 105.569 53.1008C105.164 53.2923 104.817 53.5518 104.529 53.8797C104.241 54.2077 104.018 54.5837 103.86 55.0071C103.702 55.4311 103.623 55.8751 103.623 56.3395C103.623 56.8039 103.702 57.2485 103.86 57.6719C104.018 58.0959 104.241 58.4678 104.529 58.7888C104.817 59.1103 105.164 59.3662 105.569 59.5577C105.973 59.7492 106.423 59.8447 106.917 59.8447C107.452 59.8447 107.922 59.7451 108.327 59.5472C108.731 59.3492 109.071 59.0863 109.346 58.7583C109.62 58.4303 109.826 58.0543 109.963 57.6309C110.1 57.2075 110.169 56.77 110.169 56.319ZM103.747 66.1166H101.812V51.4814H103.706V52.9983H103.768C104.083 52.4794 104.544 52.0525 105.154 51.7175C105.762 51.3831 106.471 51.215 107.279 51.215C108.004 51.215 108.665 51.3456 109.26 51.6044C109.856 51.8645 110.369 52.2264 110.8 52.6908C111.231 53.1559 111.563 53.6988 111.796 54.3207C112.029 54.9421 112.145 55.6086 112.145 56.319C112.145 57.0294 112.029 57.6994 111.796 58.3278C111.563 58.9563 111.234 59.5033 110.81 59.9677C110.386 60.4321 109.873 60.7976 109.27 61.064C108.668 61.3305 107.991 61.4635 107.238 61.4635C106.54 61.4635 105.883 61.313 105.267 61.0125C104.651 60.7127 104.164 60.2886 103.809 59.7422H103.747V66.1166Z" fill="#1A171B"/>
<path d="M121.139 61.197H119.204V51.4814H121.139V61.197ZM121.448 47.9768C121.448 48.3323 121.322 48.6257 121.071 48.8577C120.819 49.0908 120.516 49.2067 120.162 49.2067C119.808 49.2067 119.508 49.0867 119.264 48.8477C119.019 48.6088 118.896 48.3183 118.896 47.9768C118.896 47.6213 119.019 47.3244 119.264 47.0849C119.508 46.8459 119.808 46.7264 120.162 46.7264C120.516 46.7264 120.819 46.8459 121.071 47.0849C121.322 47.3244 121.448 47.6213 121.448 47.9768Z" fill="#1A171B"/>
<path d="M125.852 51.4814C125.88 51.7274 125.901 52.0039 125.914 52.3113C125.928 52.6188 125.935 52.8753 125.935 53.0803H125.997C126.12 52.8209 126.288 52.5778 126.501 52.3523C126.714 52.1274 126.957 51.9295 127.232 51.7579C127.506 51.5874 127.808 51.4545 128.137 51.3585C128.467 51.263 128.81 51.215 129.167 51.215C129.798 51.215 130.34 51.321 130.792 51.533C131.246 51.745 131.623 52.0285 131.924 52.3834C132.227 52.7389 132.449 53.1553 132.594 53.6338C132.738 54.1122 132.809 54.6247 132.809 55.1711V61.197H130.875V55.806C130.875 55.4101 130.844 55.0347 130.782 54.6792C130.72 54.3237 130.607 54.0097 130.443 53.7362C130.278 53.4627 130.052 53.2443 129.763 53.0803C129.475 52.9163 129.105 52.8343 128.652 52.8343C127.883 52.8343 127.255 53.1248 126.769 53.7052C126.281 54.2862 126.038 55.0616 126.038 56.032V61.197H124.103V53.5723C124.103 53.3128 124.096 52.9778 124.082 52.5678C124.069 52.1579 124.048 51.7959 124.021 51.4814H125.852Z" fill="#1A171B"/>
<path d="M153.001 58.9428C152.424 59.7217 151.677 60.3536 150.757 60.8386C149.838 61.3235 148.733 61.5659 147.444 61.5659C146.332 61.5659 145.306 61.3779 144.366 61.0025C143.426 60.6265 142.617 60.1006 141.938 59.4242C141.258 58.7477 140.727 57.9419 140.343 57.006C139.958 56.0701 139.766 55.0417 139.766 53.9207C139.766 52.7869 139.961 51.752 140.352 50.8155C140.744 49.8796 141.286 49.0802 141.979 48.4172C142.671 47.7549 143.491 47.2389 144.439 46.8699C145.385 46.501 146.414 46.3165 147.526 46.3165C148.02 46.3165 148.521 46.3645 149.028 46.46C149.535 46.556 150.023 46.6995 150.489 46.8904C150.956 47.0819 151.381 47.3174 151.766 47.5979C152.15 47.8778 152.479 48.2023 152.754 48.5713L151.149 49.8012C150.791 49.3092 150.286 48.9028 149.636 48.5812C148.983 48.2603 148.28 48.0998 147.526 48.0998C146.675 48.0998 145.91 48.2538 145.23 48.5607C144.552 48.8682 143.972 49.2887 143.491 49.8217C143.011 50.3546 142.641 50.9731 142.38 51.6764C142.119 52.3804 141.989 53.1289 141.989 53.9207C141.989 54.7406 142.116 55.5061 142.369 56.2165C142.624 56.9275 142.987 57.546 143.46 58.0713C143.935 58.5978 144.51 59.0113 145.19 59.3117C145.869 59.6122 146.627 59.7627 147.464 59.7627C148.288 59.7627 149.034 59.5987 149.708 59.2707C150.379 58.9428 150.935 58.4649 151.375 57.8359L153.001 58.9428Z" fill="#1A171B"/>
<path d="M154.545 52.5678C154.531 52.1579 154.51 51.7959 154.483 51.4814H156.315C156.342 51.7274 156.363 52.0114 156.377 52.3318C156.39 52.6533 156.398 52.9163 156.398 53.1213H156.459C156.734 52.5473 157.135 52.0864 157.663 51.7373C158.191 51.3889 158.785 51.2149 159.444 51.2149C159.745 51.2149 159.999 51.2425 160.205 51.2969L160.123 53.0803C159.848 53.0117 159.554 52.9778 159.238 52.9778C158.771 52.9778 158.367 53.0633 158.023 53.2337C157.68 53.4047 157.396 53.6337 157.169 53.9207C156.943 54.2077 156.775 54.5386 156.665 54.9146C156.555 55.2906 156.5 55.6835 156.5 56.0929V61.197H154.566V53.5722C154.566 53.3128 154.559 52.9778 154.545 52.5678Z" fill="#1A171B"/>
<path d="M166.936 56.565C166.456 56.565 165.959 56.5855 165.444 56.6265C164.93 56.6675 164.463 56.7494 164.044 56.8724C163.626 56.9954 163.279 57.1799 163.005 57.4259C162.731 57.6719 162.594 57.9998 162.594 58.4098C162.594 58.6968 162.652 58.9357 162.768 59.1272C162.885 59.3187 163.039 59.4751 163.231 59.5987C163.423 59.7211 163.636 59.8072 163.87 59.8546C164.103 59.9026 164.343 59.9267 164.59 59.9267C165.495 59.9267 166.192 59.6567 166.679 59.1167C167.166 58.5773 167.41 57.8973 167.41 57.0774V56.565H166.936ZM167.41 54.9046C167.41 54.1807 167.19 53.6443 166.752 53.2958C166.312 52.9473 165.729 52.7728 165.001 52.7728C164.453 52.7728 163.934 52.8788 163.447 53.0908C162.96 53.3028 162.552 53.5722 162.223 53.9002L161.194 52.6703C161.674 52.2193 162.261 51.8644 162.953 51.6044C163.646 51.345 164.391 51.2149 165.187 51.2149C165.886 51.2149 166.494 51.3145 167.009 51.5125C167.523 51.7104 167.945 51.9804 168.274 52.3218C168.604 52.6639 168.851 53.0668 169.015 53.5312C169.18 53.9962 169.262 54.4946 169.262 55.0276V59.2707C169.262 59.5987 169.273 59.9436 169.293 60.3056C169.314 60.6675 169.351 60.965 169.406 61.197H167.657C167.547 60.7331 167.492 60.2681 167.492 59.8031H167.43C167.073 60.3232 166.624 60.7255 166.082 61.0125C165.54 61.2995 164.899 61.4429 164.157 61.4429C163.773 61.4429 163.372 61.392 162.953 61.2895C162.535 61.187 162.154 61.0201 161.811 60.7876C161.468 60.5551 161.183 60.2476 160.957 59.8652C160.73 59.4827 160.617 59.0113 160.617 58.4508C160.617 57.7129 160.816 57.1284 161.214 56.6985C161.613 56.2674 162.134 55.9395 162.779 55.714C163.423 55.4891 164.151 55.3421 164.96 55.2736C165.77 55.2056 166.586 55.1711 167.41 55.1711V54.9046Z" fill="#1A171B"/>
<path d="M173.832 51.4814C173.859 51.7274 173.879 52.0039 173.893 52.3113C173.906 52.6188 173.914 52.8753 173.914 53.0803H173.975C174.099 52.8209 174.267 52.5778 174.48 52.3523C174.692 52.1274 174.936 51.9295 175.21 51.7579C175.485 51.5874 175.787 51.4545 176.117 51.3585C176.445 51.263 176.788 51.215 177.146 51.215C177.776 51.215 178.319 51.321 178.771 51.533C179.224 51.745 179.602 52.0285 179.903 52.3834C180.205 52.7389 180.429 53.1553 180.572 53.6338C180.716 54.1122 180.789 54.6247 180.789 55.1711V61.197H178.854V55.806C178.854 55.4101 178.823 55.0347 178.761 54.6792C178.7 54.3237 178.586 54.0097 178.422 53.7362C178.257 53.4627 178.03 53.2443 177.742 53.0803C177.455 52.9163 177.083 52.8343 176.631 52.8343C175.862 52.8343 175.234 53.1248 174.747 53.7052C174.26 54.2862 174.016 55.0616 174.016 56.032V61.197H172.082V53.5723C172.082 53.3128 172.075 52.9778 172.062 52.5678C172.047 52.1579 172.027 51.7959 172 51.4814H173.832Z" fill="#1A171B"/>
<path d="M188.918 53.9412C188.699 53.5863 188.39 53.2958 187.992 53.0703C187.594 52.8449 187.148 52.7318 186.654 52.7318C186.435 52.7318 186.215 52.7558 185.995 52.8039C185.776 52.8519 185.58 52.9269 185.409 53.0293C185.237 53.1318 185.1 53.2619 184.997 53.4188C184.894 53.5758 184.843 53.7702 184.843 54.0027C184.843 54.4127 185.028 54.7172 185.399 54.9152C185.769 55.1131 186.325 55.2941 187.066 55.4581C187.532 55.5676 187.964 55.6976 188.362 55.8476C188.76 55.9981 189.107 56.1855 189.402 56.411C189.697 56.637 189.927 56.9064 190.091 57.2209C190.256 57.5354 190.338 57.9044 190.338 58.3278C190.338 58.9012 190.229 59.3867 190.009 59.7826C189.789 60.1791 189.497 60.5036 189.134 60.7566C188.77 61.0096 188.355 61.1906 187.889 61.2995C187.423 61.409 186.942 61.4635 186.448 61.4635C185.708 61.4635 184.983 61.32 184.277 61.033C183.57 60.7466 182.983 60.3091 182.517 59.7211L183.896 58.5527C184.156 58.9358 184.517 59.2567 184.977 59.5161C185.436 59.7762 185.941 59.9062 186.489 59.9062C186.736 59.9062 186.973 59.8822 187.199 59.8342C187.426 59.7867 187.631 59.7082 187.817 59.5987C188.002 59.4892 188.15 59.3457 188.259 59.1677C188.369 58.9902 188.424 58.7647 188.424 58.4918C188.424 58.0409 188.208 57.7059 187.775 57.4874C187.344 57.269 186.709 57.064 185.872 56.8725C185.542 56.7905 185.209 56.6915 184.874 56.5749C184.537 56.459 184.232 56.2985 183.957 56.0935C183.683 55.8886 183.46 55.632 183.289 55.3246C183.117 55.0171 183.031 54.6382 183.031 54.1872C183.031 53.6683 183.138 53.2209 183.35 52.8449C183.563 52.4689 183.841 52.1614 184.184 51.9224C184.527 51.6835 184.918 51.5055 185.358 51.3895C185.796 51.2735 186.249 51.215 186.716 51.215C187.416 51.215 188.091 51.352 188.743 51.6255C189.395 51.8984 189.899 52.2949 190.256 52.8138L188.918 53.9412Z" fill="#1A171B"/>
<path d="M35.3204 47.9241H40.2511C40.9316 47.9241 41.6609 47.8819 42.4407 47.797C43.2194 47.7121 43.9351 47.5153 44.5868 47.2043C45.239 46.8945 45.7771 46.45 46.2023 45.8708C46.6275 45.2927 46.8398 44.5097 46.8398 43.5217C46.8398 41.9416 46.3229 40.8411 45.2884 40.2197C44.2539 39.5995 42.6454 39.2885 40.464 39.2885H35.3204V47.9241ZM35.3204 34.7168H40.2088C41.9943 34.7168 43.3329 34.3719 44.2256 33.6796C45.1184 32.9886 45.5648 32.0784 45.5648 30.9493C45.5648 29.652 45.1037 28.6851 44.1833 28.0502C43.2623 27.4148 41.7814 27.0974 39.7412 27.0974H35.3204V34.7168ZM29.9644 22.5257H41.6967C42.8295 22.5257 43.9492 22.6598 45.0549 22.928C46.16 23.1963 47.1439 23.6338 48.009 24.2399C48.873 24.8473 49.5746 25.6303 50.1133 26.5896C50.6508 27.5489 50.9208 28.7062 50.9208 30.0608C50.9208 31.754 50.4385 33.1508 49.4758 34.2512C48.5119 35.3517 47.2503 36.1423 45.6924 36.622V36.7063C46.6275 36.8194 47.4991 37.0806 48.3066 37.49C49.1141 37.8993 49.801 38.4212 50.368 39.056C50.9349 39.6909 51.3813 40.4247 51.7071 41.2569C52.0323 42.0897 52.1958 42.9858 52.1958 43.9451C52.1958 45.5821 51.87 46.9437 51.2184 48.0301C50.5662 49.1165 49.7093 49.9915 48.6465 50.6545C47.5838 51.318 46.3652 51.7907 44.9908 52.0724C43.6164 52.3547 42.2208 52.4958 40.804 52.4958H29.9644V22.5257Z" fill="#86B91D"/>
<path d="M36.3672 48.7926H41.298C41.9785 48.7926 42.7077 48.7505 43.4876 48.6656C44.2663 48.5806 44.982 48.3839 45.6336 48.0729C46.2859 47.7631 46.824 47.3185 47.2492 46.7393C47.6744 46.1619 47.8867 45.3782 47.8867 44.3902C47.8867 42.8101 47.3698 41.7096 46.3353 41.0883C45.3008 40.468 43.6922 40.1571 41.5109 40.1571H36.3672V48.7926ZM36.3672 35.5854H41.2557C43.0412 35.5854 44.3798 35.2404 45.2725 34.5482C46.1653 33.8571 46.6117 32.947 46.6117 31.8178C46.6117 30.5206 46.1506 29.5536 45.2302 28.9188C44.3092 28.2833 42.8283 27.9659 40.7881 27.9659H36.3672V35.5854ZM31.0112 23.3942H42.7436C43.8763 23.3942 44.9961 23.5283 46.1018 23.7966C47.2068 24.0648 48.1908 24.5023 49.0559 25.1085C49.9198 25.7158 50.6215 26.4988 51.1602 27.4581C51.6977 28.4175 51.9677 29.5747 51.9677 30.9294C51.9677 32.6225 51.4854 34.0193 50.5227 35.1198C49.5587 36.2202 48.2972 37.0109 46.7393 37.4905V37.5749C47.6744 37.6879 48.546 37.9491 49.3535 38.3585C50.161 38.7679 50.8479 39.2897 51.4148 39.9245C51.9818 40.5594 52.4282 41.2932 52.754 42.1255C53.0792 42.9583 53.2427 43.8543 53.2427 44.8137C53.2427 46.4506 52.9169 47.8122 52.2653 48.8987C51.613 49.9851 50.7561 50.86 49.6934 51.523C48.6307 52.1866 47.4121 52.6592 46.0377 52.9409C44.6632 53.2238 43.2676 53.3643 41.8508 53.3643H31.0112V23.3942Z" fill="#1A171B"/>
<path d="M38.5428 58.8227C27.2321 58.8227 18.0298 49.6589 18.0298 38.3954C18.0298 30.9616 22.039 24.4432 28.0166 20.8694L27.4567 19.7866C21.0862 23.5647 16.8088 30.4913 16.8088 38.3954C16.8088 50.3294 26.5587 60.0391 38.5428 60.0391C41.6622 60.0391 44.6292 59.3797 47.3134 58.1961L46.7535 57.1132C44.2375 58.2113 41.461 58.8227 38.5428 58.8227Z" fill="#86B91D"/>
<path d="M28.3442 20.3242C28.3442 20.6604 28.0708 20.9327 27.7332 20.9327C27.3956 20.9327 27.1221 20.6604 27.1221 20.3242C27.1221 19.988 27.3956 19.7157 27.7332 19.7157C28.0708 19.7157 28.3442 19.988 28.3442 20.3242Z" fill="#86B91D"/>
<path d="M47.6367 57.6596C47.6367 57.9958 47.3632 58.2681 47.0257 58.2681C46.6881 58.2681 46.4146 57.9958 46.4146 57.6596C46.4146 57.3234 46.6881 57.0511 47.0257 57.0511C47.3632 57.0511 47.6367 57.3234 47.6367 57.6596Z" fill="#86B91D"/>
<path d="M38.5428 63.7569C24.4997 63.7569 13.0749 52.3798 13.0749 38.3954C13.0749 24.4109 24.4997 13.0339 38.5428 13.0339C39.1357 13.0339 39.7244 13.0549 40.3072 13.0948C40.3866 13.1 40.3548 12.9829 40.4336 12.9893L40.4513 11.8865C39.8208 11.842 39.1845 11.818 38.5428 11.818C23.8263 11.818 11.854 23.7404 11.854 38.3954C11.854 53.0504 23.8263 64.9733 38.5428 64.9733C40.5801 64.9733 42.5638 64.7437 44.4717 64.3109L44.3376 63.2363C44.2688 63.2521 44.2399 63.1162 44.1711 63.132C42.3597 63.5402 40.4766 63.7569 38.5428 63.7569Z" fill="#1A171B"/>
<path d="M40.9822 12.4892C40.9822 12.8254 40.7087 13.0977 40.3711 13.0977C40.0335 13.0977 39.7601 12.8254 39.7601 12.4892C39.7601 12.153 40.0335 11.8807 40.3711 11.8807C40.7087 11.8807 40.9822 12.153 40.9822 12.4892Z" fill="#1A171B"/>
<path d="M44.9268 63.7229C44.9268 64.0591 44.6533 64.3315 44.3157 64.3315C43.9781 64.3315 43.7046 64.0591 43.7046 63.7229C43.7046 63.3868 43.9781 63.1144 44.3157 63.1144C44.6533 63.1144 44.9268 63.3868 44.9268 63.7229Z" fill="#1A171B"/>
<path d="M2.18895 38.3954C2.18895 18.4337 18.4975 2.19325 38.5429 2.19325C49.7437 2.19325 59.7758 7.2645 66.4498 15.2213C66.5315 15.3191 66.6356 15.2447 66.7162 15.3425L67.4084 14.4394C66.6844 13.5774 65.9204 12.741 65.1124 11.9369C58.0155 4.86914 48.5798 0.977417 38.5429 0.977417C28.5061 0.977417 19.0703 4.86914 11.9735 11.9369C4.87607 19.0041 0.968018 28.4005 0.968018 38.3954C0.968018 48.3903 4.87607 57.7867 11.9735 64.8538C16.4255 69.2879 21.7992 72.4716 27.6633 74.2285L28.1697 73.2552C28.0374 73.2171 28.1138 73.0777 27.9827 73.0379C13.0709 68.5213 2.18895 54.7008 2.18895 38.3954Z" fill="#1A171B"/>
<path d="M67.5422 14.8266C67.5422 15.1668 67.2652 15.4427 66.9235 15.4427C66.5818 15.4427 66.3048 15.1668 66.3048 14.8266C66.3048 14.4863 66.5818 14.2105 66.9235 14.2105C67.2652 14.2105 67.5422 14.4863 67.5422 14.8266Z" fill="#1A171B"/>
<path d="M28.4507 73.6365C28.4507 73.9761 28.1737 74.252 27.8326 74.252C27.4909 74.252 27.2145 73.9761 27.2145 73.6365C27.2145 73.2962 27.4909 73.0209 27.8326 73.0209C28.1737 73.0209 28.4507 73.2962 28.4507 73.6365Z" fill="#1A171B"/>
<path d="M7.73363 38.3954C7.73363 21.4779 21.5544 7.71486 38.5428 7.71486C44.2946 7.71486 49.6824 9.29322 54.2944 12.0371C54.3973 12.098 54.4885 12.0078 54.5902 12.0704L54.976 11.0268C50.1682 8.15352 44.5463 6.49844 38.5428 6.49844C20.881 6.49844 6.5127 20.8073 6.5127 38.3954C6.5127 55.2765 19.7501 69.1344 36.4309 70.2208L36.5879 69.1948C36.4697 69.1883 36.5685 69.0126 36.4503 69.0044C20.4346 67.9297 7.73363 54.6124 7.73363 38.3954Z" fill="#86B91D"/>
<path d="M55.2183 11.5153C55.2183 11.852 54.9442 12.1255 54.6054 12.1255C54.2673 12.1255 53.9926 11.852 53.9926 11.5153C53.9926 11.1785 54.2673 10.905 54.6054 10.905C54.9442 10.905 55.2183 11.1785 55.2183 11.5153Z" fill="#86B91D"/>
<path d="M37.043 69.613C37.043 69.9491 36.7695 70.2215 36.4319 70.2215C36.0943 70.2215 35.8209 69.9491 35.8209 69.613C35.8209 69.2768 36.0943 69.0045 36.4319 69.0045C36.7695 69.0045 37.043 69.2768 37.043 69.613Z" fill="#86B91D"/>
</svg>
